<?xml version="1.0" encoding="UTF-8"?>
<svg version="1.1" xmlns="http://www.w3.org/2000/svg" width="490" height="241">
<path d="M0 0 C2.52729087 0.0031707 5.05341801 -0.02044644 7.58056641 -0.0456543 C26.96382428 -0.12139415 47.08652778 2.91913091 62.02978516 16.31567383 C64.43293268 18.80912753 66.28645643 21.32791109 68.02978516 24.31567383 C68.44099609 24.97180664 68.85220703 25.62793945 69.27587891 26.30395508 C77.14007736 41.6241756 71.0410776 63.71910154 68.02978516 79.62817383 C67.64268222 81.74830934 67.25725729 83.86875194 66.87353516 85.98950195 C65.94482818 91.10195529 64.99385158 96.20977549 64.02978516 101.31567383 C66.28709008 99.0729822 68.54149735 96.82739911 70.79541016 94.58129883 C71.43172363 93.9491748 72.06803711 93.31705078 72.72363281 92.66577148 C76.41255183 88.98644653 79.9413236 85.24354367 83.30322266 81.26098633 C86.36226822 77.81436938 89.69381573 74.63445971 92.99072266 71.41723633 C95.07104607 69.48471337 95.07104607 69.48471337 96.02978516 67.31567383 C100.97978516 67.31567383 105.92978516 67.31567383 111.02978516 67.31567383 C108.89506246 71.58511922 106.24985442 74.3158223 102.88525391 77.58520508 C102.27845291 78.18443283 101.67165192 78.78366058 101.04646301 79.40104675 C98.45845484 81.95649013 95.85886945 84.50003424 93.26000977 87.04443359 C91.36004699 88.90796464 89.46631128 90.77766919 87.57275391 92.64770508 C86.99236862 93.21149368 86.41198334 93.77528229 85.81401062 94.3561554 C82.05068136 98.07458656 79.0006356 101.93518694 76.02978516 106.31567383 C78.15305672 109.816725 80.27867379 113.31634657 82.40478516 116.81567383 C83.35248779 118.37753418 83.35248779 118.37753418 84.31933594 119.97094727 C87.23814269 124.77135382 90.16746393 129.56159399 93.18603516 134.30004883 C93.64961426 135.02901367 94.11319336 135.75797852 94.59082031 136.5090332 C95.44923011 137.85263115 96.31326116 139.19265876 97.18359375 140.52856445 C100.02978516 144.98683288 100.02978516 144.98683288 100.02978516 148.31567383 C97.62910081 148.5330943 95.24808406 148.69034849 92.84228516 148.81567383 C92.16875 148.88270508 91.49521484 148.94973633 90.80126953 149.01879883 C88.79931641 149.09692383 88.79931641 149.09692383 85.02978516 148.31567383 C82.75751821 145.9828131 81.48217832 143.20683599 80.02978516 140.31567383 C78.9725024 138.45648252 77.9082933 136.60121853 76.83837891 134.74926758 C75.71281432 132.75162028 74.58914728 130.75290275 73.46728516 128.75317383 C72.34111027 126.75180017 71.21481118 124.75049638 70.08837891 122.74926758 C69.30116455 121.349104 69.30116455 121.349104 68.49804688 119.9206543 C66.68898641 116.71103089 64.86303353 113.51153224 63.02978516 110.31567383 C61.63510161 114.95415116 60.56720208 119.48472 59.77587891 124.27270508 C59.56125 125.54952148 59.34662109 126.82633789 59.12548828 128.1418457 C58.90570009 129.47055776 58.68630324 130.79933461 58.46728516 132.12817383 C58.03222858 134.76034521 57.59272497 137.39165191 57.15087891 140.02270508 C56.95937256 141.18261963 56.76786621 142.34253418 56.57055664 143.53759766 C56.02978516 146.31567383 56.02978516 146.31567383 55.02978516 148.31567383 C50.40978516 148.31567383 45.78978516 148.31567383 41.02978516 148.31567383 C41.69078659 144.25293332 42.35426207 140.19072114 43.02362061 136.12936401 C43.27853084 134.58204463 43.53279935 133.0346194 43.78643799 131.48709106 C45.61740904 120.34180956 47.58497409 109.22770476 49.65478516 98.12426758 C50.11293368 95.64385486 50.5707774 93.16338583 51.02832031 90.68286133 C51.70807059 86.99773116 52.39313119 83.31408216 53.09735107 79.63354492 C59.19913857 51.21440424 59.19913857 51.21440424 51.69775391 24.12426758 C43.97155219 13.81614529 30.18455639 10.05589438 18.02978516 8.31567383 C-20.14671524 3.49901256 -60.18422427 11.58295514 -96.3059082 23.66137695 C-98.97021484 24.31567383 -98.97021484 24.31567383 -101.97021484 23.31567383 C-69.53545123 9.55103374 -35.42473163 -0.09262713 0 0 Z " fill="#00597D" transform="translate(360.97021484375,7.684326171875)"/>
<path d="M0 0 C-0.3499872 8.13720236 -1.60142786 16.04937966 -3 24.0625 C-3.17821289 25.08609619 -3.35642578 26.10969238 -3.54003906 27.16430664 C-4.86183255 34.58549765 -4.86183255 34.58549765 -6 38 C-5.39414063 37.7834375 -4.78828125 37.566875 -4.1640625 37.34375 C4.37405674 34.5064673 12.27468723 33.62353031 20.83203125 36.91015625 C26.69049449 39.85522155 30.82830096 43.71289761 33.5 49.75 C38.27412566 65.13329379 35.00604955 82.07245782 27.82324219 96.05395508 C21.79773897 107.17496528 13.41460135 113.55175338 1.41308594 117.40014648 C-2.54605135 118.38432296 -6.37572343 118.44534454 -10.4375 118.375 C-11.26572266 118.36774902 -12.09394531 118.36049805 -12.94726562 118.35302734 C-20.35205531 118.18579427 -26.75699857 117.16200095 -33 113 C-31.6309325 100.90457935 -29.69622911 88.96463637 -27.55859375 76.984375 C-27.22723433 75.11115911 -26.89619076 73.23788732 -26.56544495 71.36456299 C-25.8778629 67.47486284 -25.18768894 63.58563558 -24.49536133 59.69677734 C-23.60838716 54.71431688 -22.72624078 49.73101707 -21.84577847 44.74740219 C-21.16501463 40.89536694 -20.48266273 37.04361451 -19.7997303 33.1919632 C-19.47371798 31.35320188 -19.14798488 29.51439103 -18.82253838 27.67552948 C-18.36941833 25.1177306 -17.914382 22.56028039 -17.45874023 20.00292969 C-17.32521652 19.24763474 -17.19169281 18.49233978 -17.05412292 17.7141571 C-16.71329991 15.8075218 -16.35755444 13.90356858 -16 12 C-15.86936661 11.21908997 -15.73873322 10.43817993 -15.60414124 9.63360596 C-14.43632366 6.47581165 -10.83864232 5.25872722 -8 3.75 C-7.34515625 3.38648438 -6.6903125 3.02296875 -6.015625 2.6484375 C-1.19666353 0 -1.19666353 0 0 0 Z M-8 47 C-9.67128778 50.98603766 -10.24430226 55.11294225 -10.90625 59.3671875 C-11.12067749 60.59406281 -11.33510498 61.82093811 -11.55603027 63.08499146 C-12.00400814 65.68124555 -12.43988692 68.27614193 -12.85546875 70.87744141 C-13.49174909 74.85869665 -14.18177801 78.82903282 -14.875 82.80078125 C-15.30460014 85.32248919 -15.73176538 87.84461341 -16.15625 90.3671875 C-16.3581897 91.55690155 -16.56012939 92.7466156 -16.76818848 93.97238159 C-16.94587769 95.08348297 -17.12356689 96.19458435 -17.30664062 97.33935547 C-17.46539673 98.31403778 -17.62415283 99.28872009 -17.78771973 100.29293823 C-18.00694161 103.08852153 -17.68531343 105.29296577 -17 108 C-9.71704974 110.00852664 -3.26915979 109.45523079 3.64453125 106.37890625 C12.97704938 100.91559132 16.89568412 90.27860739 19.8125 80.375 C21.76438118 71.78223574 23.08667237 60.39555779 19.3125 52.1875 C16.63107004 48.49147492 14.078323 46.0391615 10 44 C8.27522777 43.85126342 6.54343645 43.77864998 4.8125 43.75 C3.42998047 43.71132812 3.42998047 43.71132812 2.01953125 43.671875 C-3.4319982 44.25424758 -3.4319982 44.25424758 -8 47 Z " fill="#00597D" transform="translate(236,39)"/>
<path d="M0 0 C0.92515915 0.00424484 1.8503183 0.00848969 2.80351257 0.01286316 C5.74821505 0.02960882 8.69222435 0.06725353 11.63671875 0.10546875 C13.63735988 0.1205209 15.63801178 0.13420838 17.63867188 0.14648438 C22.53411982 0.17949892 27.4290519 0.231253 32.32421875 0.29296875 C32.18372357 1.77265199 32.03667049 3.25171391 31.88671875 4.73046875 C31.76490234 5.96603516 31.76490234 5.96603516 31.640625 7.2265625 C31.32421875 9.29296875 31.32421875 9.29296875 30.32421875 10.29296875 C27.87591449 10.38140668 25.45601276 10.40825627 23.0078125 10.390625 C22.27675797 10.38921005 21.54570343 10.3877951 20.79249573 10.38633728 C18.44886243 10.38072283 16.10532336 10.36816797 13.76171875 10.35546875 C12.17643367 10.35045561 10.59114709 10.34589238 9.00585938 10.34179688 C5.11194265 10.33074872 1.2180967 10.31347447 -2.67578125 10.29296875 C-2.79550293 11.17162598 -2.91522461 12.0502832 -3.03857422 12.95556641 C-4.0979079 20.57189872 -5.31651401 28.1236755 -6.80078125 35.66796875 C-7.41953125 38.84421875 -8.03828125 42.02046875 -8.67578125 45.29296875 C1.22421875 45.29296875 11.12421875 45.29296875 21.32421875 45.29296875 C20.66421875 48.59296875 20.00421875 51.89296875 19.32421875 55.29296875 C9.42421875 55.29296875 -0.47578125 55.29296875 -10.67578125 55.29296875 C-11.33578125 59.91296875 -11.99578125 64.53296875 -12.67578125 69.29296875 C-13.36659169 73.42270416 -14.06869613 77.54589014 -14.80078125 81.66796875 C-15.41953125 85.17421875 -16.03828125 88.68046875 -16.67578125 92.29296875 C-4.79578125 92.62296875 7.08421875 92.95296875 19.32421875 93.29296875 C18.99421875 96.59296875 18.66421875 99.89296875 18.32421875 103.29296875 C11.86473565 103.41666989 5.4059436 103.50735765 -1.05444336 103.56762695 C-3.25150565 103.59275384 -5.44848449 103.62686121 -7.64526367 103.67016602 C-10.8053853 103.73089637 -13.96440082 103.75919708 -17.125 103.78125 C-18.10538742 103.80705643 -19.08577484 103.83286285 -20.09587097 103.85945129 C-21.01644791 103.85982895 -21.93702484 103.8602066 -22.88549805 103.8605957 C-23.69158005 103.87169876 -24.49766205 103.88280182 -25.32817078 103.89424133 C-28.97039487 102.96139088 -30.45739462 101.27462121 -32.67578125 98.29296875 C-32.82969666 94.92253113 -32.82969666 94.92253113 -32.17163086 91.07885742 C-32.06015433 90.38061702 -31.94867781 89.68237661 -31.8338232 88.96297741 C-31.59374865 87.482142 -31.34089052 86.00333016 -31.07618332 84.52669907 C-30.68944177 82.36917696 -30.33595167 80.20903543 -29.99343872 78.0440979 C-29.28199243 73.59538378 -28.51580117 69.15701656 -27.7421875 64.71875 C-27.46073559 63.09450358 -27.17931846 61.47025114 -26.89793396 59.84599304 C-26.31334383 56.47827988 -25.72538557 53.1111738 -25.13549805 49.74438477 C-24.38168433 45.43785972 -23.64113118 41.12916196 -22.90351963 36.81983662 C-22.32965763 33.48058958 -21.7465641 30.14300281 -21.16090202 26.80580711 C-20.88362999 25.21682452 -20.609744 23.62724704 -20.33938789 22.03707314 C-19.96197908 19.82277107 -19.57159679 17.6111281 -19.17797852 15.3996582 C-18.95972916 14.14441849 -18.7414798 12.88917877 -18.51661682 11.59590149 C-17.42647982 7.31367402 -15.94703263 4.38808379 -12.59301758 1.4987793 C-8.3730465 -0.24550367 -4.52082955 -0.07839677 0 0 Z " fill="#00597D" transform="translate(57.67578125,52.70703125)"/>
<path d="M0 0 C1.42022461 -0.04350586 1.42022461 -0.04350586 2.86914062 -0.08789062 C10.88805107 -0.15963587 16.91133526 1.59398032 23.125 6.75 C27.79827641 12.5561919 27.65768944 18.1612581 27.1875 25.3125 C26.62070984 29.85883329 25.82810724 34.35019552 25 38.85546875 C24.77803955 40.10507889 24.5560791 41.35468903 24.32739258 42.64216614 C23.74231405 45.9263564 23.14916859 49.20886875 22.55187988 52.49084473 C21.94170572 55.85528577 21.34244012 59.22166799 20.7421875 62.58789062 C19.56721154 69.1645811 18.38053587 75.73906271 17.1875 82.3125 C12.5675 82.3125 7.9475 82.3125 3.1875 82.3125 C3.7782309 70.14156822 6.02056898 58.39666151 8.25 46.4375 C8.99801352 42.4205434 9.73767158 38.40217078 10.47265625 34.3828125 C10.64450943 33.47540314 10.81636261 32.56799377 10.99342346 31.63308716 C12.50666673 23.36004409 12.50666673 23.36004409 11.625 15.0625 C8.88464713 11.72641825 5.19949008 10.55071376 1.04296875 10.05859375 C-4.4649025 9.91390361 -9.47626575 11.05237548 -14.8125 12.3125 C-19.20528057 35.63496965 -23.52570929 58.97033186 -27.8125 82.3125 C-32.4325 82.3125 -37.0525 82.3125 -41.8125 82.3125 C-41.11063178 74.01598151 -39.79343522 65.88999972 -38.34375 57.6953125 C-38.10067675 56.30676001 -37.857884 54.9181584 -37.61535645 53.5295105 C-37.10989054 50.63972073 -36.60205337 47.750362 -36.09228516 44.86132812 C-35.43982648 41.16331224 -34.79187212 37.46452525 -34.14548492 33.7654438 C-33.64571488 30.90677375 -33.14435781 28.04838399 -32.6424408 25.19009018 C-32.4029193 23.82581889 -32.16370897 22.46149293 -31.92481995 21.09711075 C-31.59135008 19.19484871 -31.25568429 17.29297201 -30.91992188 15.39111328 C-30.72974487 14.31096954 -30.53956787 13.23082581 -30.34362793 12.11795044 C-30.16835571 11.19215179 -29.9930835 10.26635315 -29.8125 9.3125 C-29.60844543 8.17251053 -29.60844543 8.17251053 -29.40026855 7.00949097 C-28.8125 5.3125 -28.8125 5.3125 -26.30078125 4.08203125 C-25.25277344 3.76621094 -24.20476562 3.45039062 -23.125 3.125 C-22.08988281 2.80144531 -21.05476563 2.47789063 -19.98828125 2.14453125 C-13.29061794 0.38979289 -6.89153075 0.0695178 0 0 Z " fill="#00597D" transform="translate(376.8125,73.6875)"/>
<path d="M0 0 C5.71433432 4.01245649 8.72506889 9.84796165 10.359375 16.578125 C13.18617483 33.91751323 8.61649755 52.94971075 -1.55078125 67.23046875 C-7.87768676 75.00822493 -14.99583814 79.5930476 -25.046875 80.67578125 C-33.22643193 81.10245642 -40.53648718 80.47453182 -47.203125 75.26171875 C-53.53094811 68.79862151 -55.1754767 60.43748058 -55.22265625 51.60546875 C-54.29878869 34.45290886 -50.45164291 16.30836689 -37.203125 4.26171875 C-27.00420696 -3.61926337 -11.69298087 -6.26409689 0 0 Z M-31.53515625 14.7890625 C-38.95179655 25.78375409 -42.98523085 44.04041991 -41.203125 57.26171875 C-39.99464422 62.27954114 -38.30394946 65.95460225 -34.203125 69.26171875 C-30.7397378 70.99341235 -26.99656023 70.60190837 -23.203125 70.26171875 C-16.69791324 68.09331483 -12.96472732 63.57094345 -9.8203125 57.6640625 C-4.11415374 44.9704219 -0.31560781 28.45288705 -3.89453125 14.58203125 C-5.35412554 11.24756062 -7.06414966 9.36054566 -10.015625 7.26171875 C-19.34110041 4.33607941 -25.60989721 7.58195934 -31.53515625 14.7890625 Z " fill="#00597D" transform="translate(191.203125,76.73828125)"/>
<path d="M0 0 C3.72310478 3.4694626 5.81979014 6.74025565 6.23168945 11.90527344 C6.4534407 23.79364752 4.81420613 35.22928743 2.7590332 46.92236328 C2.18240029 50.27969203 1.6748309 53.64353243 1.16601562 57.01171875 C0.79586975 59.15958273 0.42166789 61.30675257 0.04296875 63.453125 C-0.09712112 64.45410217 -0.237211 65.45507935 -0.38154602 66.48638916 C-0.93926918 69.37541986 -1.46217824 71.48684606 -3 74 C-11.0463654 78.90607033 -20.59970531 79.20119843 -29.75 79.25 C-30.70132812 79.270625 -31.65265625 79.29125 -32.6328125 79.3125 C-40.14441007 79.35365944 -46.46181223 78.23059664 -52.875 74.1875 C-57.06691957 69.87228868 -58.20942297 66.18000276 -58.4375 60.25 C-58.17577687 51.4386545 -55.25812907 44.21518397 -49.15234375 37.8125 C-38.2009494 28.59027318 -21.931052 25.59029881 -8 25 C-7.91873913 22.91731407 -7.86069161 20.83371342 -7.8125 18.75 C-7.77769531 17.58984375 -7.74289062 16.4296875 -7.70703125 15.234375 C-8.02506154 11.72332058 -8.50080076 10.43057135 -11 8 C-19.79705451 4.70110456 -28.50388216 6.06674885 -37.125 9.37890625 C-39 10 -39 10 -42 10 C-42.66 7.36 -43.32 4.72 -44 2 C-32.04867915 -4.51890228 -11.91553253 -8.95719342 0 0 Z M-37.23046875 41.16796875 C-42.04487193 46.15241707 -45 53.07435005 -45 60 C-43.79236445 64.02545183 -42.91435764 66.29664797 -39.5625 68.875 C-31.6450266 72.35096393 -24.13353741 71.10869488 -16 69 C-14.60029108 64.3403742 -13.52264863 59.77884058 -12.7109375 54.97265625 C-12.38222656 53.04389648 -12.38222656 53.04389648 -12.046875 51.07617188 C-11.82283108 49.73829558 -11.5988738 48.40040477 -11.375 47.0625 C-11.14358852 45.69720467 -10.91182082 44.33196966 -10.6796875 42.96679688 C-10.11629129 39.64510673 -9.55651128 36.32284936 -9 33 C-18.41241808 32.82794505 -29.62320642 35.42252206 -37.23046875 41.16796875 Z " fill="#00597D" transform="translate(329,78)"/>
<path d="M0 0 C144.87 0 289.74 0 439 0 C439 1.32 439 2.64 439 4 C294.13 4 149.26 4 0 4 C0 2.68 0 1.36 0 0 Z " fill="#B4D333" transform="translate(21,170)"/>
<path d="M0 0 C-0.50298788 4.40114397 -2.08772731 6.71195019 -5 10 C-5.78375 9.505 -6.5675 9.01 -7.375 8.5 C-13.12773707 6.11955707 -18.45106702 6.08623157 -24.3125 8.1875 C-33.32458463 14.26541754 -37.40315397 23.5095702 -39.875 33.875 C-41.69087927 43.64615988 -42.83721097 53.99277956 -38 63 C-34.89848485 66.45597402 -31.98639911 67.70737671 -27.3359375 68.1171875 C-22.72239987 67.88573912 -18.36909923 66.42156354 -14 65 C-13.34 67.97 -12.68 70.94 -12 74 C-21.15652598 79.45869818 -31.0588836 80.86082877 -41.6171875 78.38671875 C-47.4594051 75.80659541 -51.38807628 70.85639882 -53.81811523 65.04272461 C-55.81022751 59.60329427 -56.513773 54.71003408 -56.4375 48.9375 C-56.42992676 48.11894531 -56.42235352 47.30039063 -56.41455078 46.45703125 C-55.98260255 30.16280891 -50.6331438 16.12974654 -39.375 4.16796875 C-28.71576906 -5.56208581 -12.47081842 -7.57036132 0 0 Z " fill="#00597D" transform="translate(139,78)"/>
<path d="M0 0 C2.0650151 3.41176408 2.04668681 5.44912946 1.4375 9.375 C-0.03105494 11.69724778 -1.62484221 13.38890076 -3.5625 15.375 C-2.83353516 15.98214844 -2.83353516 15.98214844 -2.08984375 16.6015625 C0.26478076 19.33557664 -0.08639809 21.67090108 -0.2109375 25.15234375 C-0.74201042 28.50990476 -2.0554749 30.13900464 -4.5625 32.375 C-8.37908908 34.26022362 -11.45325665 34.62086676 -15.6875 34.5625 C-17.23824219 34.55283203 -17.23824219 34.55283203 -18.8203125 34.54296875 C-21.5625 34.375 -21.5625 34.375 -24.5625 33.375 C-23.98378908 25.54839378 -22.90120899 17.9065276 -21.5 10.1875 C-21.31373047 9.14013672 -21.12746094 8.09277344 -20.93554688 7.01367188 C-20.48197338 4.46668227 -20.02424232 1.92051901 -19.5625 -0.625 C-12.67931825 -2.49827098 -6.39072159 -4.05265272 0 0 Z M-14.5625 2.375 C-15.0308265 4.96105332 -15.0308265 4.96105332 -15.1875 7.9375 C-15.26226562 8.94941406 -15.33703125 9.96132812 -15.4140625 11.00390625 C-15.46304687 11.78636719 -15.51203125 12.56882813 -15.5625 13.375 C-10.19726697 13.68443999 -10.19726697 13.68443999 -5.5625 11.375 C-4.27018358 8.33300528 -4.27018358 8.33300528 -3.5625 5.375 C-6.25407455 2.13883504 -6.25407455 2.13883504 -10.1875 1.0625 C-12.57489747 1.24506966 -12.57489747 1.24506966 -14.5625 2.375 Z M-16.5625 17.375 C-18.3119618 23.77715071 -18.3119618 23.77715071 -18.5625 30.375 C-12.98676641 30.91155007 -12.98676641 30.91155007 -8.125 28.6875 C-6.3673575 26.0861891 -5.64110458 24.51918333 -5.5625 21.375 C-6.34499092 18.9142464 -6.34499092 18.9142464 -8.5625 17.375 C-11.31752488 17.03333353 -13.76783624 17.19174336 -16.5625 17.375 Z " fill="#00597D" transform="translate(375.5625,197.625)"/>
<path d="M0 0 C1.98 0 3.96 0 6 0 C5.34 4.29 4.68 8.58 4 13 C4.66 12.67 5.32 12.34 6 12 C10.2549057 11.51831256 12.26487074 11.45903624 15.765625 14.03515625 C18 17 18 17 18.12109375 20.70703125 C17.92270928 22.0801043 17.69355415 23.44900366 17.4375 24.8125 C17.32615723 25.52083984 17.21481445 26.22917969 17.10009766 26.95898438 C16.32492589 31.71278809 15.34809365 36.37796463 14 41 C12.35 41 10.7 41 9 41 C9.1452555 39.22911917 9.29124598 37.45829864 9.4375 35.6875 C9.52644531 34.60210937 9.61539063 33.51671875 9.70703125 32.3984375 C10.06138905 28.28788701 10.4797149 24.18485525 10.9140625 20.08203125 C10.95660156 19.05142578 10.95660156 19.05142578 11 18 C9.81575674 16.58422523 9.81575674 16.58422523 6.4375 16.9375 C4.7359375 16.9684375 4.7359375 16.9684375 3 17 C2.87882812 17.89460938 2.75765625 18.78921875 2.6328125 19.7109375 C1.64162794 26.86271531 0.52854643 33.94266862 -1 41 C-2.98 41 -4.96 41 -7 41 C-6.16486679 35.96442497 -5.32865446 30.92903076 -4.49145508 25.89379883 C-4.20698075 24.1819337 -3.92279794 22.4700201 -3.63891602 20.75805664 C-3.2301022 18.29300242 -2.82022979 15.82812618 -2.41015625 13.36328125 C-2.28407486 12.60163162 -2.15799347 11.83998199 -2.02809143 11.05525208 C-1.4117095 7.35657267 -0.76467765 3.67108731 0 0 Z " fill="#00597D" transform="translate(41,191)"/>
<path d="M0 0 C1.98 0 3.96 0 6 0 C6.71717395 4.32249895 7.42908856 8.64582201 8.13623047 12.9699707 C8.3773136 14.43960702 8.6198098 15.90901229 8.86376953 17.37817383 C9.21502192 19.4950071 9.56111456 21.61263063 9.90625 23.73046875 C10.22045898 25.63928833 10.22045898 25.63928833 10.54101562 27.58666992 C10.92672009 30.45503911 11.09642822 33.11438566 11 36 C9.02 36 7.04 36 5 36 C4.67 32.37 4.34 28.74 4 25 C-1.6331029 24.8290816 -1.6331029 24.8290816 -7 26 C-9.4629475 29.06303005 -10.7794063 32.28427 -12 36 C-13.65 36 -15.3 36 -17 36 C-16.4009783 32.30190733 -15.35965526 29.35396451 -13.671875 26.015625 C-13.20136719 25.07976562 -12.73085937 24.14390625 -12.24609375 23.1796875 C-11.75238281 22.21289062 -11.25867188 21.24609375 -10.75 20.25 C-10.27175781 19.29867187 -9.79351562 18.34734375 -9.30078125 17.3671875 C-6.33502485 11.49997294 -3.24136907 5.71943656 0 0 Z M1 8 C-0.98 12.29 -2.96 16.58 -5 21 C-2.36 21 0.28 21 3 21 C2.67 16.71 2.34 12.42 2 8 C1.67 8 1.34 8 1 8 Z " fill="#00597D" transform="translate(207,196)"/>
<path d="M0 0 C1.98 0 3.96 0 6 0 C5.86722656 0.9178125 5.73445313 1.835625 5.59765625 2.78125 C4.67657959 9.18172431 3.77045166 15.57956948 3 22 C3.58007812 21.278125 4.16015625 20.55625 4.7578125 19.8125 C5.53898437 18.884375 6.32015625 17.95625 7.125 17 C7.89070313 16.071875 8.65640625 15.14375 9.4453125 14.1875 C12 12 12 12 15.3046875 11.6875 C16.19414062 11.790625 17.08359375 11.89375 18 12 C16.46356148 15.68069887 14.21849055 17.98775204 11.375 20.75 C10.55773437 21.54921875 9.74046875 22.3484375 8.8984375 23.171875 C8.27195312 23.77515625 7.64546875 24.3784375 7 25 C8.53754997 29.12408262 10.53059268 32.49920415 12.9765625 36.1328125 C14 38 14 38 14 41 C12.02 41 10.04 41 8 41 C5.03 35.555 5.03 35.555 2 30 C0.41678933 35.47774766 0.41678933 35.47774766 -1 41 C-2.98 41 -4.96 41 -7 41 C-4.69 27.47 -2.38 13.94 0 0 Z " fill="#00597D" transform="translate(435,191)"/>
<path d="M0 0 C2.37158009 3.67212402 2.40819375 5.56888511 1.62890625 9.78125 C0.44765529 13.57193104 -1.01843326 15.45292375 -4.0625 18 C-7.35924505 19.11964926 -10.58479121 19.79687719 -14.0625 20 C-14.7225 19.67 -15.3825 19.34 -16.0625 19 C-16.19527344 19.91523438 -16.32804687 20.83046875 -16.46484375 21.7734375 C-16.64144531 22.96195313 -16.81804687 24.15046875 -17 25.375 C-17.17402344 26.55835938 -17.34804687 27.74171875 -17.52734375 28.9609375 C-18.0625 32 -18.0625 32 -19.0625 34 C-20.7125 34 -22.3625 34 -24.0625 34 C-23.72591679 26.02297786 -22.54623945 18.23300068 -21.1875 10.375 C-21.02604492 9.39063965 -20.86458984 8.4062793 -20.69824219 7.39208984 C-20.53227539 6.46605957 -20.36630859 5.5400293 -20.1953125 4.5859375 C-20.04980957 3.7511084 -19.90430664 2.9162793 -19.75439453 2.05615234 C-19.0625 0 -19.0625 0 -16.0625 -2 C-10.3111836 -3.80755658 -5.00963542 -3.27159864 0 0 Z M-12.0625 1 C-15.31445722 5.87793583 -15.17575659 10.22391379 -15.0625 16 C-10.97800495 15.76435605 -8.72035068 15.59037881 -5.625 12.8125 C-3.81408965 9.55286137 -3.65429274 7.67386532 -4.0625 4 C-4.3925 3.34 -4.7225 2.68 -5.0625 2 C-7.38406597 1.59270772 -9.7193787 1.25561323 -12.0625 1 Z " fill="#00597D" transform="translate(126.0625,198)"/>
<path d="M0 0 C3.25 1.875 3.25 1.875 5 5 C5.28739316 8.45524964 4.67878113 11.61496731 4 15 C3.75121094 16.24136719 3.50242188 17.48273438 3.24609375 18.76171875 C2.53005391 22.18279797 1.78053495 25.59313675 1 29 C-0.65 29 -2.3 29 -4 29 C-3.45423097 20.89963866 -2.45852964 12.98651182 -1 5 C-3.64 5 -6.28 5 -9 5 C-10.65 12.92 -12.3 20.84 -14 29 C-15.98 29 -17.96 29 -20 29 C-19.38710056 24.89393062 -18.75762254 20.79057311 -18.125 16.6875 C-17.95097656 15.52025391 -17.77695313 14.35300781 -17.59765625 13.15039062 C-17.42363281 12.03212891 -17.24960938 10.91386719 -17.0703125 9.76171875 C-16.91320801 8.73006592 -16.75610352 7.69841309 -16.59423828 6.63549805 C-16 4 -16 4 -14 1 C-9.35299857 -0.54900048 -4.84809301 -0.59364404 0 0 Z " fill="#00597D" transform="translate(170,203)"/>
<path d="M0 0 C1.25490234 -0.00773438 1.25490234 -0.00773438 2.53515625 -0.015625 C5.12525703 0.27076013 6.74283842 0.86183989 8.9375 2.25 C12.55127312 9.47754623 7.82516896 21.88927828 5.9375 29.25 C4.2875 29.25 2.6375 29.25 0.9375 29.25 C0.99808594 28.60675781 1.05867188 27.96351563 1.12109375 27.30078125 C1.80215112 19.95583942 2.38785636 12.60586909 2.9375 5.25 C0.6275 5.25 -1.6825 5.25 -4.0625 5.25 C-5.7125 13.17 -7.3625 21.09 -9.0625 29.25 C-10.7125 29.25 -12.3625 29.25 -14.0625 29.25 C-13.72682171 22.28178175 -13.06935672 15.42905618 -11.8125 8.5625 C-11.60109375 7.40363281 -11.3896875 6.24476563 -11.171875 5.05078125 C-10.0625 2.25 -10.0625 2.25 -7.76953125 0.87109375 C-5.08589223 0.25536705 -2.75039538 -0.01700399 0 0 Z " fill="#00597D" transform="translate(417.0625,202.75)"/>
<path d="M0 0 C3.25 1.875 3.25 1.875 5 5 C5.22001702 8.43855164 4.62668328 11.62519451 4 15 C3.75443359 16.60681641 3.75443359 16.60681641 3.50390625 18.24609375 C2.21478261 26.57043478 2.21478261 26.57043478 1 29 C-0.65 29 -2.3 29 -4 29 C-3.90912109 28.03513672 -3.90912109 28.03513672 -3.81640625 27.05078125 C-3.13534888 19.70583942 -2.54964364 12.35586909 -2 5 C-4.31 5 -6.62 5 -9 5 C-10.65 12.92 -12.3 20.84 -14 29 C-15.98 29 -17.96 29 -20 29 C-19.3856791 25.08158052 -18.75670129 21.165652 -18.125 17.25 C-17.95097656 16.13882813 -17.77695312 15.02765625 -17.59765625 13.8828125 C-17.42363281 12.81289062 -17.24960937 11.74296875 -17.0703125 10.640625 C-16.91320801 9.65610352 -16.75610352 8.67158203 -16.59423828 7.65722656 C-16.02185984 5.09774959 -15.4359798 3.1911988 -14 1 C-9.35299857 -0.54900048 -4.84809301 -0.59364404 0 0 Z " fill="#00597D" transform="translate(328,203)"/>
<path d="M0 0 C2.625 1.5625 2.625 1.5625 4 4 C4.27505676 9.25227436 3.67515879 14.16690033 2.75 19.3125 C2.64042969 20.02728516 2.53085938 20.74207031 2.41796875 21.47851562 C1.50520464 26.57558259 1.50520464 26.57558259 -0.734375 28.45703125 C-3.54281617 29.1300887 -6.10961362 29.33887017 -9 29.375 C-10.03125 29.40335938 -11.0625 29.43171875 -12.125 29.4609375 C-15.68802111 28.88969227 -16.8330402 27.83292853 -19 25 C-19.5147559 21.54378179 -19.22252043 19.53157657 -17.875 16.3125 C-13.84017844 11.33622008 -7.97583312 10.33941087 -2 9 C-2.33 7.68 -2.66 6.36 -3 5 C-6.3 5.33 -9.6 5.66 -13 6 C-13.33 4.68 -13.66 3.36 -14 2 C-9.45370802 -0.630956 -5.13427807 -0.67376739 0 0 Z M-12 17 C-13.34689915 19.57099402 -13.34689915 19.57099402 -14 22 C-12.39795381 24.18712805 -12.39795381 24.18712805 -10 26 C-6.80045046 25.85650653 -6.80045046 25.85650653 -4 25 C-3.67 21.37 -3.34 17.74 -3 14 C-7.33401335 14 -8.63324113 14.43063139 -12 17 Z " fill="#00597D" transform="translate(145,203)"/>
<path d="M0 0 C0.845625 -0.02835938 1.69125 -0.05671875 2.5625 -0.0859375 C5.89922318 0.54504541 7.04141686 1.62387391 9 4.375 C9.36768093 8.75158908 8.61143037 13.03533567 8 17.375 C7.87238281 18.36628906 7.74476563 19.35757813 7.61328125 20.37890625 C6.81875846 25.3865866 6.81875846 25.3865866 6 27.375 C2.96099362 29.57707912 0.17800265 29.64520881 -3.5 29.625 C-4.4384375 29.63015625 -5.376875 29.6353125 -6.34375 29.640625 C-9.09859723 29.36514028 -10.72884568 28.94773557 -13 27.375 C-14.14369261 23.41019895 -14.22309675 21.05741359 -12.9375 17.125 C-9.08754937 11.66055394 -3.19039141 10.76250152 3 9.375 C2.67 8.055 2.34 6.735 2 5.375 C-1.3 5.705 -4.6 6.035 -8 6.375 C-8.33 5.055 -8.66 3.735 -9 2.375 C-5.91348586 0.58882284 -3.55804868 0.05423855 0 0 Z M-1.9375 14.75 C-2.64777344 15.00523437 -3.35804688 15.26046875 -4.08984375 15.5234375 C-6.18408568 16.32047447 -6.18408568 16.32047447 -8 18.375 C-8.16681109 21.45847826 -8.16681109 21.45847826 -8 24.375 C-3.56906802 26.18801758 -3.56906802 26.18801758 1 25.375 C1.66 21.415 2.32 17.455 3 13.375 C1.25100965 13.375 -0.30885281 14.15508728 -1.9375 14.75 Z " fill="#00597D" transform="translate(298,202.625)"/>
<path d="M0 0 C0.76183594 -0.02578125 1.52367187 -0.0515625 2.30859375 -0.078125 C5.21335876 0.3447524 6.516357 1.15339159 8.5625 3.25 C10.30603646 11.00667793 8.08446873 20.88128477 5.5625 28.25 C2.3859489 29.30885037 -0.03738011 29.45049266 -3.375 29.5 C-4.41527344 29.52578125 -5.45554687 29.5515625 -6.52734375 29.578125 C-9.81445256 29.20749797 -11.16144318 28.62829105 -13.4375 26.25 C-14.01521579 21.77270264 -14.04748145 19.44344198 -12 15.4375 C-7.43664191 11.54195041 -2.36827569 10.25 3.5625 10.25 C3.5625 8.6 3.5625 6.95 3.5625 5.25 C-2.52158472 5.05185739 -2.52158472 5.05185739 -8.4375 6.25 C-8.1075 4.6 -7.7775 2.95 -7.4375 1.25 C-4.69320004 0.33523335 -2.84716906 0.05761556 0 0 Z M-6.4375 16.25 C-8.14945826 18.0043576 -8.14945826 18.0043576 -8.4375 20.25 C-8.13371948 22.93993053 -8.13371948 22.93993053 -7.4375 25.25 C-4.15053767 26.04953138 -2.72726808 26.34658936 0.5625 25.25 C2.05132438 21.17532275 2.82520217 17.58458585 2.5625 13.25 C-0.48200733 13.25 -3.74864677 14.94462312 -6.4375 16.25 Z " fill="#00597D" transform="translate(391.4375,202.75)"/>
<path d="M0 0 C3.23613354 1.74253345 3.82395315 2.47185944 5 6 C5.1875 9.5625 5.1875 9.5625 5 13 C2.09472388 15.90527612 -1.21099025 15.71264319 -5.125 16.125 C-5.87910156 16.21136719 -6.63320312 16.29773438 -7.41015625 16.38671875 C-9.27257127 16.59889261 -11.13618931 16.80045763 -13 17 C-12.34 18.98 -11.68 20.96 -11 23 C-5.44506076 24.02703748 -5.44506076 24.02703748 0 23 C0.33 24.65 0.66 26.3 1 28 C-3.65222913 29.55074304 -8.14637922 29.58101738 -13 29 C-16.1875 27.25 -16.1875 27.25 -18 24 C-19.16041092 16.64721445 -18.39996313 10.10697224 -14 4 C-10.16862655 -0.36838536 -5.58924175 -0.64231206 0 0 Z M-12 9 C-12.33 10.32 -12.66 11.64 -13 13 C-7.06 12.505 -7.06 12.505 -1 12 C-0.67 10.35 -0.34 8.7 0 7 C-1.63137811 3.79889882 -1.63137811 3.79889882 -4.3125 3.5 C-8.14424333 4.21288248 -9.57197125 6.03240931 -12 9 Z " fill="#00597D" transform="translate(79,203)"/>
<path d="M0 0 C-0.25 1.875 -0.25 1.875 -1 4 C-1.9590625 4.433125 -1.9590625 4.433125 -2.9375 4.875 C-5.34703737 5.90505873 -5.34703737 5.90505873 -6.25 9.125 C-6.4975 10.07375 -6.745 11.0225 -7 12 C-5.68 12 -4.36 12 -3 12 C-3 13.32 -3 14.64 -3 16 C-4.65 16 -6.3 16 -8 16 C-8.12117187 17.05058594 -8.24234375 18.10117188 -8.3671875 19.18359375 C-9.24021206 26.56126606 -10.1950189 33.7800756 -12 41 C-13.98 41 -15.96 41 -18 41 C-16.68 33.08 -15.36 25.16 -14 17 C-14.66 16.67 -15.32 16.34 -16 16 C-16 14.68 -16 13.36 -16 12 C-15.01 11.67 -14.02 11.34 -13 11 C-12.31060191 8.67328146 -11.64533078 6.33932406 -11 4 C-8.01243649 0.10317803 -4.69754024 -0.12696055 0 0 Z " fill="#00597D" transform="translate(240,191)"/>
<path d="M0 0 C6.27 0 12.54 0 19 0 C19 1.32 19 2.64 19 4 C16.69 4 14.38 4 12 4 C11.89042969 4.81339844 11.78085937 5.62679687 11.66796875 6.46484375 C10.70353729 13.43540934 9.63817504 20.37895173 8.4375 27.3125 C8.31076904 28.05943115 8.18403809 28.8063623 8.0534668 29.57592773 C7.11902321 34.88097679 7.11902321 34.88097679 6 36 C4.33382885 36.04063832 2.66611905 36.042721 1 36 C1.50720092 25.17126036 3.87575751 14.60054575 6 4 C4.02 4 2.04 4 0 4 C0 2.68 0 1.36 0 0 Z " fill="#00597D" transform="translate(17,196)"/>
<path d="M0 0 C0.66 0.33 1.32 0.66 2 1 C1.67 2.32 1.34 3.64 1 5 C-0.0725 4.896875 -1.145 4.79375 -2.25 4.6875 C-6.10122124 4.60835892 -6.10122124 4.60835892 -8.375 7.3125 C-10.51114083 10.8453483 -11.15405562 13.50235279 -11.1875 17.5625 C-11.20167969 18.34753906 -11.21585937 19.13257813 -11.23046875 19.94140625 C-11.19167509 22.2243545 -11.19167509 22.2243545 -9 24 C-5.41656024 24.16677282 -5.41656024 24.16677282 -2 24 C-2 25.32 -2 26.64 -2 28 C-5.45031261 29.72515631 -9.22716304 29.49677924 -13 29 C-16.03215675 26.80168636 -16.81654398 25.55036806 -18 22 C-18.51976474 15.5029408 -17.58232458 9.3337947 -13.5234375 4.09375 C-9.14002874 -0.1495498 -5.9853642 -0.71012796 0 0 Z " fill="#00597D" transform="translate(283,203)"/>
<path d="M0 0 C0.79921875 0.01804688 1.5984375 0.03609375 2.421875 0.0546875 C3.02515625 0.07789063 3.6284375 0.10109375 4.25 0.125 C3.92 1.445 3.59 2.765 3.25 4.125 C1.27 4.455 -0.71 4.785 -2.75 5.125 C-4.4 13.045 -6.05 20.965 -7.75 29.125 C-9.4 29.125 -11.05 29.125 -12.75 29.125 C-12.97846813 23.16034989 -12.13972509 17.65997014 -11 11.8125 C-10.84273437 10.90693359 -10.68546875 10.00136719 -10.5234375 9.06835938 C-10.35585937 8.20404297 -10.18828125 7.33972656 -10.015625 6.44921875 C-9.86899414 5.66635498 -9.72236328 4.88349121 -9.57128906 4.0769043 C-8.75 2.125 -8.75 2.125 -6.81835938 0.86694336 C-4.4161583 0.00524729 -2.5447753 -0.07484633 0 0 Z " fill="#00597D" transform="translate(249.75,202.875)"/>
<path d="M0 0 C1.65 0 3.3 0 5 0 C4.45089248 9.82713114 2.81857774 19.3466691 1 29 C-0.98 29 -2.96 29 -5 29 C-4.49175795 22.59615021 -3.60797866 16.32301609 -2.5 10 C-2.36940186 9.245979 -2.23880371 8.49195801 -2.10424805 7.71508789 C-1.1258228 2.25164561 -1.1258228 2.25164561 0 0 Z " fill="#00597D" transform="translate(258,203)"/>
<path d="M0 0 C-0.33 1.65 -0.66 3.3 -1 5 C-2.65 5 -4.3 5 -6 5 C-6 3.35 -6 1.7 -6 0 C-3.50907189 -1.24546405 -2.58919267 -0.7767578 0 0 Z " fill="#00597D" transform="translate(265,194)"/>
</svg>
