<svg xmlns="http://www.w3.org/2000/svg" width="32" height="32" fill="none"><g clip-path="url(#a)"><path fill="#9333EA" d="M5 30V5.111A3.11 3.11 0 0 1 8.11 2h15.556a3.11 3.11 0 0 1 3.11 3.111V30l-4.666-3.111L19 30l-3.111-3.111L12.778 30l-3.111-3.111zm6.222-21.778h9.333zm0 6.222h9.333zm6.222 6.223h3.111Z"/><path stroke="#FAF5FF" stroke-linecap="round" stroke-linejoin="round" stroke-width="2" d="M17.444 20.667h3.111M5 30V5.111A3.11 3.11 0 0 1 8.11 2h15.556a3.11 3.11 0 0 1 3.11 3.111V30l-4.666-3.111L19 30l-3.111-3.111L12.778 30l-3.111-3.111zm6.222-21.778h9.333zm0 6.222h9.333z"/></g><defs><clipPath id="a"><path fill="#fff" d="M0 0h32v32H0z"/></clipPath></defs></svg>