<?xml version="1.0" standalone="no"?>
<!DOCTYPE svg PUBLIC "-//W3C//DTD SVG 1.1//EN" "http://www.w3.org/Graphics/SVG/1.1/DTD/svg11.dtd" >
<svg xmlns="http://www.w3.org/2000/svg">
<metadata>
<json>
<![CDATA[
{
	"fontFamily": "icomoon",
	"description": "Font generated by IcoMoon.",
	"version": "Version 1.0",
	"majorVersion": 0,
	"fontId": "icomoon",
	"psName": "icomoon",
	"subFamily": "Regular",
	"fullName": "icomoon"
}
]]>
</json>
</metadata>
<defs>
<font id="icomoon" horiz-adv-x="1024">
<font-face units-per-em="1024" ascent="960" descent="-64" />
<missing-glyph horiz-adv-x="1024" />
<glyph unicode="&#x20;" horiz-adv-x="512" d="" />
<glyph unicode="&#xe900;" glyph-name="close" data-tags="close" d="M839.271 910.631c27.265 27.266 71.472 27.266 98.741 0 27.266-27.266 27.266-71.472 0-98.738l-789.905-789.905c-27.265-27.266-71.472-27.266-98.738 0-27.266 27.268-27.266 71.475 0 98.741l789.902 789.902zM839.271 21.988l-789.902 789.905c-27.266 27.265-27.266 71.472 0 98.738s71.472 27.266 98.738 0l789.905-789.902c27.266-27.265 27.266-71.472 0-98.741-27.268-27.266-71.475-27.266-98.741 0z" />
<glyph unicode="&#xe901;" glyph-name="lock" data-tags="lock" horiz-adv-x="808" d="M718.579 313.247c0 48.365-5.115 96.445-11.63 144.84-7.583 56.328-54.256 99.715-109.687 102.264-62.972 2.894-126.968 4.42-197.525 4.421-70.569 0-134.595-1.526-197.579-4.421-51.957-2.389-96.21-40.66-107.789-91.843l-1.842-10.421c-6.516-48.396-11.684-96.475-11.684-144.84 0.001-48.36 5.17-96.402 11.684-144.788 7.584-56.331 54.205-99.77 109.632-102.319 62.984-2.894 127.011-4.365 197.579-4.365 70.555 0 134.553 1.471 197.525 4.365 55.431 2.549 102.104 45.988 109.687 102.319 6.516 48.381 11.63 96.428 11.63 144.788zM799.421 313.247c0-53.803-5.702-106.076-12.369-155.578-12.617-93.707-90.252-167.861-186.050-172.264-64.255-2.953-129.498-4.473-201.265-4.473-71.773 0-137.057 1.52-201.316 4.473-95.789 4.409-173.437 78.562-186.053 172.264-6.665 49.497-12.367 101.775-12.368 155.578 0 53.814 5.702 106.119 12.368 155.63 12.615 93.701 90.263 167.852 186.053 172.263 64.26 2.954 129.543 4.474 201.316 4.474 71.766-0.001 137.010-1.52 201.265-4.474 95.798-4.404 173.433-78.558 186.050-172.263 6.667-49.511 12.369-101.816 12.369-155.63zM561.405 605.21v112.263c0 89.296-72.39 161.684-161.686 161.684s-161.684-72.389-161.684-161.684v-112.263c0-22.324-18.097-40.421-40.421-40.421s-40.421 18.097-40.421 40.421v112.263c0 133.944 108.583 242.526 242.526 242.526 133.945 0 242.528-108.583 242.528-242.526v-112.263c0-22.324-18.098-40.421-40.421-40.421s-40.421 18.097-40.421 40.421zM525.474 313.242v0.469c0 29.766 24.129 53.895 53.895 53.895s53.895-24.129 53.895-53.895v-0.469c-0.011-29.755-24.139-53.895-53.895-53.895s-53.881 24.139-53.895 53.895zM345.825 313.242v0.469c0 29.766 24.129 53.895 53.895 53.895s53.895-24.129 53.895-53.895v-0.469c-0.013-29.755-24.138-53.895-53.895-53.895s-53.882 24.139-53.895 53.895zM166.175 313.242v0.469c0 29.766 24.13 53.895 53.895 53.895s53.895-24.129 53.895-53.895v-0.469c-0.013-29.755-24.137-53.895-53.895-53.895s-53.881 24.139-53.895 53.895z" />
<glyph unicode="&#xe902;" glyph-name="mail" data-tags="mail" horiz-adv-x="1216" d="M1058.067 741.707l20.99-37.088-327.51-185.6c-61.443-34.815-112.623-56.853-167.276-56.853-54.64 0.006-105.794 22.047-167.222 56.853l-327.562 185.6 42.083 74.176 327.506-185.544c59.275-33.588 93.983-45.796 125.195-45.802 31.219 0 65.955 12.211 125.252 45.802l327.504 185.544 21.040-37.088zM445.755 901.062c92.641 2.326 184.4 2.326 277.038 0 73.303-1.843 132.954-3.275 180.772-11.606 49.717-8.656 90.874-25.408 125.692-60.35 34.653-34.79 51.401-75.39 59.905-124.362 8.149-46.939 9.251-105.183 10.772-176.496 1.013-47.3 1.013-94.33 0-141.629-1.526-71.319-2.621-129.559-10.772-176.496-8.503-48.976-25.245-89.518-59.905-124.305-34.824-34.958-75.962-51.743-125.692-60.405-47.817-8.326-107.467-9.713-180.772-11.551-92.645-2.324-184.4-2.33-277.038 0-73.287 1.843-132.907 3.229-180.715 11.551-49.732 8.656-90.925 25.441-125.75 60.405-34.648 34.787-51.348 75.342-59.85 124.305-8.154 46.937-9.251 105.171-10.772 176.496-1.010 47.298-1.009 94.33 0 141.629 1.523 71.315 2.622 129.557 10.772 176.496 8.503 48.971 25.19 89.572 59.85 124.362 34.824 34.959 76.018 51.688 125.75 60.35 47.806 8.322 107.421 9.765 180.715 11.606zM720.686 815.786c-91.218 2.293-181.551 2.292-272.766 0-75.854-1.908-128.115-3.331-168.276-10.326-38.24-6.659-61.189-17.7-79.948-36.532-18.928-19.004-29.755-41.69-36.2-78.783-6.79-39.118-8.030-89.825-9.603-163.725-0.98-46.079-0.98-91.88 0-137.967 1.578-73.903 2.811-124.602 9.603-163.726 6.437-37.079 17.285-59.727 36.2-78.729 18.759-18.831 41.705-29.924 79.948-36.585 40.164-6.99 92.422-8.421 168.276-10.326 91.214-2.299 181.547-2.299 272.766 0 75.829 1.906 128.064 3.33 168.216 10.326 38.25 6.654 61.19 17.754 79.951 36.585 18.926 19.008 29.81 41.638 36.256 78.729 6.794 39.124 7.978 89.82 9.548 163.726 0.981 46.080 0.981 91.88 0 137.967-1.577 73.898-2.76 124.608-9.548 163.725-6.439 37.094-17.33 59.779-36.256 78.783-18.761 18.822-41.714 29.87-79.951 36.532-40.156 6.988-92.386 8.423-168.216 10.326z" />
<glyph unicode="&#xe903;" glyph-name="eye-off" data-tags="eye-off" horiz-adv-x="1144" d="M63.437 946.768c17.642 17.643 46.24 17.643 63.883 0l903.529-903.531c17.643-17.643 17.643-46.237 0-63.88s-46.237-17.643-63.88 0l-903.532 903.528c-17.643 17.643-17.643 46.24 0 63.883zM401.454 462.99c0.014 38.612 15.393 75.647 42.706 102.941 17.649 17.63 46.248 17.647 63.882 0 17.63-17.65 17.588-46.248-0.058-63.883-10.36-10.353-16.17-24.412-16.177-39.058-0.005-14.65 5.822-28.697 16.177-39.059s24.409-16.171 39.058-16.177c14.642 0 28.702 5.769 39.059 16.118 17.65 17.636 46.243 17.649 63.88 0s17.589-46.247-0.054-63.883c-27.317-27.285-64.335-42.603-102.943-42.585-38.61 0.012-75.65 15.336-102.942 42.644-27.283 27.306-42.595 64.341-42.588 102.942zM252.359 768.555c20.646 13.986 48.706 8.582 62.706-12.059 13.993-20.641 8.63-48.698-12-62.706-73.851-50.093-142.676-126.21-205.529-230.706 126.295-210.109 276.532-306.226 449.588-306.238 88.322 0 169.116 24.913 243.645 75.18 20.679 13.944 48.748 8.487 62.705-12.18 13.957-20.685 8.511-48.809-12.174-62.759-89.202-60.157-187.549-90.594-294.177-90.594-222.461 0.012-402.409 131.349-541.177 374.179-7.924 13.887-7.935 30.942 0 44.823 71.067 124.326 152.875 219.613 246.412 283.059zM547.241 859.555c222.415-0.039 402.308-131.274 541.060-374.059 7.939-13.891 7.939-30.992 0-44.882-40.418-70.699-84.209-131.969-131.65-183.295-16.932-18.324-45.556-19.462-63.88-2.53-18.312 16.932-19.396 45.508-2.47 63.825 37.147 40.193 72.626 88.29 106.412 144.47-126.295 210.081-276.54 306.177-449.59 306.177h-0.118c-40.509 0.143-80.876-5.447-119.823-16.588-23.977-6.848-48.956 7.029-55.824 31-6.862 23.988 7.012 49.020 31 55.882 47.070 13.464 95.807 20.157 144.765 20h0.117z" />
<glyph unicode="&#xe904;" glyph-name="eye" data-tags="eye" horiz-adv-x="1408" d="M753.558 460.388c0 34.201-27.722 61.94-61.94 61.94-34.2 0-61.939-27.725-61.939-61.94s27.728-61.94 61.939-61.94c34.204 0 61.94 27.725 61.94 61.94zM827.872 460.388c0-75.25-61.003-136.254-136.254-136.254-75.249 0-136.253 61.004-136.253 136.254s61.004 136.254 136.253 136.254c75.251 0 136.254-61.004 136.254-136.254zM691.618 844.388c216.026 0 391.586-127.272 527.76-365.564 6.525-11.421 6.525-25.452 0-36.873-136.173-238.296-311.734-365.564-527.76-365.564s-391.581 127.272-527.756 365.564c-6.523 11.421-6.523 25.452 0 36.873 136.175 238.296 311.731 365.564 527.756 365.564zM691.618 770.060c-175.326 0-326.424-98.232-452.423-309.672 125.985-211.444 277.083-309.672 452.423-309.672 175.322 0 326.381 98.248 452.377 309.672-125.983 211.426-277.042 309.672-452.377 309.672z" />
<glyph unicode="&#xe905;" glyph-name="ike-outlined" data-tags="ike-outlined" horiz-adv-x="973" d="M928.681 439.439c20.157 26.64 31.319 59.28 31.319 93.24 0 53.88-30.121 104.88-78.602 133.32-12.477 7.321-26.691 11.174-41.16 11.16h-287.759l7.204 147.48c1.679 35.64-10.921 69.48-35.405 95.28-12.012 12.717-26.505 22.834-42.584 29.728s-33.4 10.417-50.894 10.352c-62.4 0-117.6-42-134.16-102.12l-103.080-373.2h-155.16c-21.24 0-38.4-17.16-38.4-38.399v-436.803c0-21.238 17.16-38.4 38.4-38.4h721.562c11.039 0 21.837 2.161 31.8 6.482 57.119 24.361 93.957 80.159 93.957 142.080 0 15.119-2.161 29.998-6.477 44.401 20.157 26.639 31.319 59.279 31.319 93.24 0 15.119-2.161 29.998-6.482 44.401 20.163 26.639 31.319 59.279 31.319 93.24-0.241 15.119-2.396 30.116-6.717 44.518v0zM86.4 57.477v340.803h97.2v-340.803h-97.2zM850.079 481.079l-26.281-22.8 16.681-30.482c5.499-10.040 8.346-21.309 8.279-32.758 0-19.799-8.637-38.641-23.516-51.599l-26.281-22.799 16.681-30.479c5.494-10.040 8.346-21.315 8.279-32.763 0-19.799-8.643-38.641-23.521-51.599l-26.281-22.799 16.681-30.479c5.494-10.040 8.346-21.315 8.279-32.763 0-26.88-15.836-51.118-40.32-62.157h-498.358v344.52l119.4 432.6c3.079 11.088 9.688 20.87 18.826 27.864s20.307 10.82 31.814 10.896c9.12 0 18.12-2.64 25.32-8.040 11.88-8.88 18.24-22.32 17.52-36.6l-11.52-238.080h377.28c21.361-13.080 34.56-35.16 34.56-58.080 0-19.8-8.637-38.52-23.521-51.6z" />
<glyph unicode="&#xe906;" glyph-name="user" data-tags="user" horiz-adv-x="916" d="M180.408 348.844c161.739 96.3 366.683 96.3 528.421 0 27.384-16.309 92.311-49.087 133.788-89.686 21.191-20.744 42.173-48.861 45.999-83.893 4.101-37.527-12.374-72.187-43.892-102.211-53.221-50.704-117.992-92.16-202.105-92.16h-396.001c-84.116 0-148.884 41.456-202.105 92.16-31.517 30.030-47.995 64.684-43.895 102.211 3.829 35.032 24.809 63.148 46 83.893 41.481 40.599 106.407 73.378 133.79 89.686zM667.459 279.369c-136.251 81.128-309.43 81.128-445.683 0-36.156-21.531-86.295-46.349-118.632-78.002-15.711-15.382-21.355-27.071-22.21-34.891-0.58-5.336 0.173-16.61 19.368-34.897 45.911-43.736 91.623-69.842 146.316-69.842h396.001c54.692 0 100.406 26.107 146.313 69.842 19.197 18.286 19.946 29.561 19.37 34.897-0.857 7.82-6.5 19.515-22.21 34.891-32.337 31.652-82.475 56.471-118.633 78.002zM606.305 717.474c0 89.296-72.39 161.684-161.687 161.684-89.295 0-161.684-72.389-161.684-161.684s72.389-161.684 161.684-161.684c89.297 0 161.687 72.388 161.687 161.684zM687.147 717.474c0-133.944-108.582-242.526-242.529-242.526-133.944 0-242.526 108.583-242.526 242.526s108.583 242.526 242.526 242.526c133.947 0 242.529-108.583 242.529-242.526z" />
<glyph unicode="&#xe907;" glyph-name="phone" data-tags="phone" d="M0 814.412c0 80.395 65.193 145.588 145.588 145.588h82.589c59.523 0 113.069-36.263 135.176-91.529l40.823-102.059c25.877-64.692 2.084-137.618-54.647-175.235 3.336-9.961 7.607-21.864 13.236-35 17.297-40.359 45.833-91.48 90.823-136.471s96.111-73.527 136.471-90.821c13.107-5.62 24.992-9.848 34.942-13.179 37.617 56.721 110.604 80.464 175.291 54.589l102.063-40.825c55.266-22.106 91.528-75.65 91.528-135.174v-82.589c0-80.396-65.193-145.589-145.589-145.589-468.494 0.012-848.283 379.802-848.294 848.294zM90.353 814.412c0.011-418.595 339.346-757.929 757.941-757.941 30.497 0 55.236 24.739 55.236 55.236v82.589c0 22.576-13.746 42.906-34.708 51.29l-102.117 40.827c-26.66 10.662-57.043-0.904-69.879-26.588l-8.885-17.763c-7.969-15.932-24.407-25.474-41.767-24.943l-7.529 0.879h-0.114c-0.048 0.012-0.114 0.048-0.175 0.060-0.133 0.030-0.289 0.024-0.476 0.060-0.386 0.078-0.904 0.217-1.524 0.355-1.247 0.271-2.988 0.657-5.12 1.175-4.271 1.036-10.264 2.59-17.649 4.765-14.779 4.349-35.336 11.192-59.175 21.414-47.482 20.347-109.31 54.603-164.706 109.996-55.396 55.398-89.649 117.225-110 164.707-10.217 23.839-17.064 44.396-21.411 59.176-2.173 7.386-3.726 13.378-4.765 17.647-0.519 2.134-0.901 3.872-1.176 5.118-0.137 0.623-0.272 1.143-0.353 1.529-0.038 0.181-0.033 0.343-0.058 0.471-0.013 0.062-0.049 0.128-0.059 0.176v0.117c-3.995 19.974 5.842 40.181 24.059 49.294l17.765 8.882c25.683 12.842 37.249 43.221 26.588 69.883l-40.823 102.117c-8.385 20.963-28.717 34.706-51.294 34.706h-82.589c-30.495 0-55.235-24.74-55.235-55.235z" />
<glyph unicode="&#xe908;" glyph-name="arrow-narrow-left" data-tags="arrow-narrow-left" horiz-adv-x="1638" d="M1536 550.408c56.556 0 102.4-45.847 102.4-102.4s-45.844-102.4-102.4-102.4h-1433.6c-56.554 0-102.4 45.846-102.4 102.4s45.846 102.4 102.4 102.4h1433.6zM29.998 520.408c39.99 39.989 104.81 39.989 144.8 0l409.6-409.6c39.989-39.99 39.989-104.81 0-144.801s-104.81-39.991-144.801 0l-409.6 409.6c-39.99 39.99-39.99 104.81 0 144.801zM439.598 930.008c39.99 39.99 104.81 39.99 144.801 0 39.989-39.99 39.989-104.81 0-144.8l-409.6-409.6c-39.99-39.989-104.811-39.989-144.8 0s-39.99 104.81 0 144.801l409.6 409.6z" />
<glyph unicode="&#xe909;" glyph-name="circle-check" data-tags="circle-check" d="M903.529 463.059c0 224.552-182.037 406.588-406.588 406.588s-406.588-182.036-406.588-406.588c0-224.551 182.036-406.588 406.588-406.588s406.588 182.037 406.588 406.588zM993.882 463.059c0-274.45-222.491-496.941-496.941-496.941-274.453 0-496.941 222.491-496.941 496.941 0 274.453 222.488 496.941 496.941 496.941 274.45 0 496.941-222.488 496.941-496.941zM615.587 595.392c17.643 17.642 46.243 17.642 63.886 0s17.643-46.24 0-63.883l-200.765-200.764c-8.468-8.469-19.967-13.234-31.941-13.234-11.982 0-23.469 4.759-31.942 13.234l-100.412 100.352c-17.639 17.639-17.633 46.239 0 63.883 17.642 17.642 46.24 17.642 63.883 0l68.412-68.412 168.88 168.823z" />
<glyph unicode="&#xe90a;" glyph-name="face-recognition" data-tags="face-recognition" d="M0 226.133c0 28.276 22.923 51.2 51.2 51.2s51.2-22.924 51.2-51.2v-176.367h176.367c28.272-0.007 51.2-22.927 51.2-51.2-0.006-28.269-22.932-51.193-51.2-51.2h-227.567c-28.273 0-51.194 22.927-51.2 51.2v227.567zM910.234 226.133c0 28.276 22.924 51.2 51.2 51.2 28.273-0.007 51.2-22.927 51.2-51.2v-227.567c-0.007-28.269-22.931-51.193-51.2-51.2h-227.567c-28.273 0-51.193 22.927-51.2 51.2 0 28.276 22.924 51.2 51.2 51.2h176.367v176.367zM910.234 681.233v176.367h-176.367c-28.276 0-51.2 22.923-51.2 51.2s22.924 51.2 51.2 51.2h227.567c28.273-0.006 51.2-22.927 51.2-51.2v-227.567c-0.007-28.268-22.931-51.194-51.2-51.2-28.273 0-51.193 22.928-51.2 51.2zM0 681.233v227.567c0 28.277 22.923 51.2 51.2 51.2h227.567c28.272-0.006 51.2-22.927 51.2-51.2s-22.928-51.194-51.2-51.2h-176.367v-176.367c-0.006-28.272-22.927-51.2-51.2-51.2s-51.194 22.928-51.2 51.2zM652.165 262.332c19.995 19.992 52.408 19.995 72.4 0 19.988-19.992 19.988-52.405 0-72.397l-36.198 36.198c35.516-35.516 36.168-36.205 36.168-36.233l-0.266-0.266c-0.113-0.113-0.256-0.225-0.403-0.369-0.297-0.29-0.662-0.652-1.099-1.065-0.874-0.829-2.038-1.891-3.468-3.168-2.854-2.55-6.803-5.963-11.831-9.899-10.039-7.854-24.47-17.995-42.933-28.068-36.943-20.149-90.877-40.4-158.235-40.4-67.352 0.003-121.262 20.251-158.201 40.4-18.464 10.073-32.895 20.214-42.932 28.068-5.031 3.936-9.012 7.349-11.867 9.899-1.424 1.273-2.593 2.338-3.467 3.168-0.433 0.41-0.804 0.778-1.1 1.065l-0.633 0.635c-0.015 0.014-0.037 0.027 36.167 36.233l-36.2-36.198c-19.995 19.992-19.995 52.405 0 72.397 19.962 19.965 52.297 19.995 72.3 0.102l1.167-1.068c1.321-1.181 3.591-3.106 6.735-5.567 6.315-4.943 16.056-11.878 28.867-18.865 25.634-13.981 62.754-27.863 109.165-27.866 46.408 0 83.531 13.885 109.169 27.866 12.81 6.987 22.583 13.923 28.897 18.865 3.14 2.458 5.414 4.386 6.735 5.567l1.232 1.167c-0.024-0.024-0.034-0.068-0.065-0.099l-0.068-0.034-0.034-0.034v-0.034zM455.1 476.443v204.801c0 28.273 22.927 51.194 51.2 51.2 28.276 0 51.2-22.923 51.2-51.2v-204.801c0-39.404-19.183-74.513-43.435-98.765-24.248-24.252-59.361-43.465-98.765-43.469h-22.767c-28.273 0-51.193 22.931-51.2 51.2 0 28.279 22.924 51.2 51.2 51.2h22.767c6.106 0.007 16.49 3.594 26.368 13.469 9.875 9.878 13.431 20.262 13.431 26.365zM682.667 635.745v45.5c0 28.277 22.924 51.2 51.2 51.2s51.2-22.923 51.2-51.2v-45.5l-0.266-5.233c-2.618-25.826-24.419-45.968-50.934-45.968s-48.316 20.142-50.934 45.968l-0.266 5.233zM227.556 635.745v45.5c0 28.277 22.923 51.2 51.2 51.2s51.2-22.923 51.2-51.2v-45.5l-0.267-5.233c-2.616-25.826-24.419-45.968-50.933-45.968s-48.317 20.142-50.933 45.968l-0.267 5.233z" />
<glyph unicode="&#xe90b;" glyph-name="face-id" data-tags="face-id" d="M0 685.598v117.117c0 41.714 16.573 81.72 46.069 111.216s69.502 46.069 111.216 46.069h117.117c22.178 0 40.157-17.979 40.157-40.157s-17.979-40.157-40.157-40.157h-117.117c-20.413 0-39.997-8.105-54.432-22.539s-22.539-34.019-22.539-54.432v-117.117l-0.049-2.069c-1.075-21.218-18.622-38.088-40.108-38.088s-39.033 16.87-40.108 38.088l-0.049 2.069zM0 99.971v117.128c0 22.178 17.979 40.157 40.157 40.157s40.157-17.979 40.157-40.157v-117.128c0.001-20.411 8.107-39.988 22.539-54.422 14.434-14.434 34.019-22.539 54.432-22.539h117.117c22.177 0 40.155-17.98 40.157-40.157 0-22.178-17.979-40.157-40.157-40.157h-117.117c-41.712 0-81.72 16.565-111.216 46.059-29.495 29.495-46.068 69.503-46.069 111.215zM936.99 685.598v117.117c0 20.413-8.105 39.997-22.539 54.432-14.433 14.432-34.011 22.538-54.422 22.539h-117.128c-22.178 0-40.157 17.979-40.157 40.157s17.979 40.157 40.157 40.157h117.128c41.712-0.001 81.72-16.574 111.215-46.069s46.059-69.504 46.059-111.216v-117.117c0-22.178-17.979-40.157-40.157-40.157-22.177 0.002-40.157 17.98-40.157 40.157zM936.99 99.971v117.128c0 22.177 17.98 40.155 40.157 40.157 22.178 0 40.157-17.979 40.157-40.157v-117.128c0-41.712-16.564-81.72-46.059-111.215s-69.503-46.059-111.215-46.059h-117.128c-22.178 0-40.157 17.979-40.157 40.157 0.002 22.177 17.98 40.157 40.157 40.157h117.128c20.412 0.001 39.988 8.106 54.422 22.539s22.538 34.010 22.539 54.422zM333.546 608.627l2.059-0.049c21.22-1.073 38.098-18.621 38.098-40.108 0-21.486-16.878-39.034-38.098-40.108l-2.059-0.049h-0.578c-22.179 0-40.157 17.979-40.157 40.157s17.978 40.157 40.157 40.157h0.578zM684.918 608.627l2.059-0.049c21.22-1.073 38.098-18.621 38.098-40.108 0-21.486-16.878-39.034-38.098-40.108l-2.059-0.049h-0.578c-22.178 0-40.157 17.979-40.157 40.157s17.979 40.157 40.157 40.157h0.578zM626.376 303.768c15.521 15.839 40.943 16.097 56.784 0.579 15.842-15.522 16.1-40.953 0.578-56.795-22.822-23.291-50.065-41.798-80.127-54.431-30.064-12.633-62.351-19.138-94.961-19.138s-64.898 6.504-94.961 19.138c-30.063 12.632-57.305 31.139-80.127 54.431-15.522 15.842-15.263 41.273 0.578 56.795s41.272 15.262 56.794-0.579c15.345-15.661 33.659-28.104 53.872-36.598s41.919-12.871 63.843-12.872c21.927 0 43.638 4.379 63.853 12.872 20.212 8.494 38.527 20.938 53.872 36.598z" />
<glyph unicode="&#xe90c;" glyph-name="check" data-tags="check" horiz-adv-x="1365" d="M1036.322 794.636c32.179 32.176 84.327 32.176 116.5 0 32.179-32.176 32.179-84.326 0-116.502l-549.264-549.263c-32.175-32.179-84.324-32.179-116.5 0l-274.657 274.612c-32.173 32.173-32.167 84.325 0 116.502 32.176 32.176 84.326 32.176 116.502 0l216.362-216.36 491.053 491.008z" />
<glyph unicode="&#xe90d;" glyph-name="direction-right" data-tags="direction-right" horiz-adv-x="410" d="M12.239 44.542c-19.268-28.799-15.359-70.869 8.726-93.908 24.085-23.041 59.269-18.361 78.537 10.435l297.86 445.194c16.317 24.39 16.317 59.085 0 83.474l-297.86 445.195c-19.268 28.799-54.452 33.474-78.537 10.434s-27.995-65.109-8.726-93.908l269.935-403.458-269.935-403.458z" />
<glyph unicode="&#xe90e;" glyph-name="message" data-tags="message" d="M898.264 650.105c0 83.587-20.873 138.867-55.528 173.527-34.654 34.656-89.94 55.523-173.525 55.526h-359.316c-83.594 0-138.868-20.868-173.527-55.526s-55.526-89.933-55.526-173.527v-224.579c0.002-108.782 22.131-161.011 53.579-188.524 32.787-28.677 86.379-40.529 175.474-40.529h22.474c14.019-0.005 27.394-4.349 37.737-9.475 10.142-5.028 21.888-13.053 30.474-24.63l67.421-89.843c8.297-11.054 16.472-13.468 21.527-13.474 5.054 0 13.271 2.398 21.579 13.474l67.525 90.053c16.061 21.127 41.364 33.894 68.107 33.894h22.474c83.585 0.005 138.871 20.873 173.525 55.528s55.522 89.94 55.528 173.525v224.579zM979.106 425.526c-0.005-96.046-24.048-175.52-79.209-230.686-55.167-55.161-134.64-79.204-230.686-79.209h-22.474c-1.099 0-2.732-0.674-3.735-1.999l-67.212-89.578c-21.332-28.446-52.244-45.843-86.263-45.843-34.012 0.005-64.881 17.403-86.211 45.843l-67 89.314c-0.451 0.329-1.183 0.755-2.105 1.213l-2.684 1.051h-21.632c-90.539 0-171.697 10.617-228.737 60.529-58.372 51.071-81.156 133.61-81.158 249.366v224.579c0 96.056 24.044 175.518 79.211 230.684s134.629 79.211 230.684 79.211h359.316c96.046-0.003 175.519-24.048 230.686-79.211 55.156-55.166 79.209-134.634 79.209-230.684v-224.579zM669.453 569.245c29.761-0.010 53.895-24.136 53.895-53.895-0.005-29.75-24.139-53.884-53.895-53.895h-0.42c-29.755 0-53.884 24.138-53.895 53.895 0 29.766 24.134 53.895 53.895 53.895h0.42zM489.763 569.245c29.757-0.010 53.895-24.136 53.895-53.895-0.011-29.75-24.144-53.884-53.895-53.895h-0.421c-29.76 0-53.885 24.138-53.895 53.895 0 29.766 24.13 53.895 53.895 53.895h0.421zM310.070 569.245c29.756-0.010 53.895-24.136 53.895-53.895-0.010-29.75-24.144-53.884-53.895-53.895h-0.421c-29.759 0-53.885 24.138-53.895 53.895 0 29.766 24.13 53.895 53.895 53.895h0.421z" />
<glyph unicode="&#xe90f;" glyph-name="direction-down" data-tags="direction-down" horiz-adv-x="2048" d="M1754.709 931.95c55.211 44.161 135.851 35.202 180.002-20 44.169-55.202 35.209-135.839-20.002-180l-853.327-682.667c-46.747-37.398-113.253-37.398-160 0l-853.333 682.667c-55.202 44.162-64.161 124.799-20 180s124.798 64.161 180 20l773.333-618.666 773.327 618.666z" />
<glyph unicode="&#xe910;" glyph-name="category" data-tags="category" d="M367.577 787.692c0 40.624-10.121 64.766-24.346 79-14.232 14.232-38.402 24.385-79.038 24.385h-91.885c-40.637 0-64.768-10.153-79-24.385s-24.385-38.363-24.385-79v-91.885c0-40.637 10.153-64.806 24.385-79.038 14.234-14.226 38.376-24.346 79-24.346h91.885c40.637 0 64.806 10.114 79.038 24.346s24.346 38.402 24.346 79.038v91.885zM436.5 695.808c0-51.261-12.82-96.053-44.538-127.769-31.716-31.718-76.509-44.538-127.769-44.538h-91.885c-51.261 0-96.053 12.82-127.769 44.538-31.712 31.716-44.538 76.512-44.538 127.769v91.885c0 51.261 12.822 96.053 44.538 127.769s76.509 44.538 127.769 44.538h91.885c51.257 0 96.053-12.827 127.769-44.538 31.718-31.716 44.538-76.509 44.538-127.769v-91.885zM918.961 787.692c0 40.624-10.122 64.766-24.348 79-14.23 14.232-38.4 24.385-79.037 24.385h-91.884c-40.637 0-64.768-10.153-79.002-24.385-14.23-14.232-24.383-38.363-24.383-79v-91.885c0-40.637 10.153-64.806 24.383-79.038 14.234-14.226 38.376-24.346 79.002-24.346h91.884c40.637 0 64.807 10.114 79.037 24.346 14.234 14.232 24.348 38.402 24.348 79.038v91.885zM987.884 695.808c0-51.261-12.82-96.053-44.54-127.769-31.716-31.718-76.505-44.538-127.768-44.538h-91.884c-51.259 0-96.051 12.82-127.768 44.538-31.712 31.716-44.54 76.512-44.54 127.769v91.885c0 51.261 12.824 96.053 44.54 127.769s76.509 44.538 127.768 44.538h91.884c51.259 0 96.055-12.827 127.768-44.538 31.72-31.716 44.54-76.509 44.54-127.769v-91.885zM918.961 236.308c0 40.625-10.122 64.768-24.348 79.002-14.23 14.23-38.4 24.383-79.037 24.383h-91.884c-40.637 0-64.768-10.153-79.002-24.383-14.23-14.234-24.383-38.365-24.383-79.002v-91.884c0-40.637 10.153-64.807 24.383-79.037 14.234-14.226 38.376-24.348 79.002-24.348h91.884c40.637 0 64.807 10.114 79.037 24.348 14.234 14.23 24.348 38.4 24.348 79.037v91.884zM987.884 144.423c0-51.263-12.82-96.051-44.54-127.768-31.716-31.72-76.505-44.54-127.768-44.54h-91.884c-51.259 0-96.051 12.82-127.768 44.54-31.712 31.712-44.54 76.509-44.54 127.768v91.884c0 51.259 12.824 96.051 44.54 127.768s76.509 44.54 127.768 44.54h91.884c51.259 0 96.055-12.828 127.768-44.54 31.72-31.716 44.54-76.509 44.54-127.768v-91.884zM367.577 236.308c0 40.625-10.121 64.768-24.346 79.002-14.232 14.23-38.402 24.383-79.038 24.383h-91.885c-40.637 0-64.768-10.153-79-24.383-14.232-14.234-24.385-38.365-24.385-79.002v-91.884c0-40.637 10.153-64.807 24.385-79.037 14.234-14.226 38.376-24.348 79-24.348h91.885c40.637 0 64.806 10.114 79.038 24.348 14.232 14.23 24.346 38.4 24.346 79.037v91.884zM436.5 144.423c0-51.263-12.82-96.051-44.538-127.768-31.716-31.72-76.509-44.54-127.769-44.54h-91.885c-51.261 0-96.053 12.82-127.769 44.54-31.712 31.712-44.538 76.509-44.538 127.768v91.884c0 51.259 12.822 96.051 44.538 127.768s76.509 44.54 127.769 44.54h91.885c51.257 0 96.053-12.828 127.769-44.54 31.718-31.716 44.538-76.509 44.538-127.768v-91.884z" />
<glyph unicode="&#xe911;" glyph-name="group" data-tags="group" d="M986.468 789.88c16.957-0.007 30.72-13.758 30.72-30.72s-13.763-30.713-30.72-30.72h-477.88c-16.966 0-30.72 13.754-30.72 30.72s13.754 30.72 30.72 30.72h477.88zM955.748 824.16c-0.004 42.265-6.054 56.294-12.083 62.28-6.111 6.067-20.484 12.118-63.279 12.12h-265.72c-42.799 0-57.164-6.053-63.279-12.12-6.029-5.984-12.079-20.005-12.079-62.28v-196.4c0-42.283 6.050-56.336 12.079-62.32 6.119-6.065 20.5-12.12 63.279-12.12h265.72c42.787 0.002 57.164 6.053 63.279 12.12 6.029 5.984 12.083 20.036 12.083 62.32v196.4zM1017.188 627.76c0-41.821-4.493-80.366-30.241-105.921-25.661-25.465-64.315-29.958-106.562-29.958h-265.72c-42.246 0-80.896 4.497-106.562 29.958-25.747 25.555-30.237 64.1-30.237 105.921v196.4c0 41.816 4.493 80.327 30.237 105.88 25.666 25.469 64.311 29.96 106.562 29.96h265.72c42.246-0.001 80.9-4.493 106.562-29.96 25.739-25.553 30.237-64.067 30.241-105.88v-196.4zM508.6 240.333c16.962-0.008 30.72-13.758 30.72-30.72s-13.758-30.712-30.72-30.72h-477.88c-16.966 0-30.72 13.754-30.72 30.72s13.754 30.72 30.72 30.72h477.88zM477.88 274.612c0 42.267-6.054 56.295-12.079 62.28-6.115 6.070-20.488 12.12-63.281 12.12h-265.72c-42.797 0-57.165-6.050-63.28-12.12-6.029-5.984-12.079-20.005-12.080-62.28v-196.399c0-42.283 6.050-56.336 12.080-62.321 6.12-6.062 20.5-12.12 63.28-12.12h265.72c42.785 0.004 57.166 6.054 63.281 12.12 6.029 5.984 12.079 20.038 12.079 62.321v196.399zM539.32 78.213c0-41.82-4.493-80.364-30.241-105.918-25.657-25.469-64.315-29.958-106.559-29.962h-265.72c-42.246 0-80.897 4.497-106.56 29.962-25.748 25.555-30.24 64.098-30.24 105.918v196.399c0.001 41.816 4.495 80.327 30.24 105.882 25.663 25.469 64.31 29.958 106.56 29.958h265.72c42.244 0 80.902-4.493 106.559-29.958 25.739-25.555 30.241-64.070 30.241-105.882v-196.399zM955.748 308.052c0 16.966 13.75 30.72 30.72 30.72 16.957-0.004 30.72-13.758 30.72-30.72 0-201.9-163.34-365.24-365.24-365.24-11.067 0-21.266 5.972-26.722 15.602-5.448 9.626-5.321 21.434 0.36 30.921l50.201 83.64c8.729 14.549 27.611 19.288 42.16 10.559 14.541-8.729 19.243-27.615 10.519-42.16l-18.997-31.601c140.386 26.837 246.28 149.987 246.28 298.279zM0 594.76c0 201.9 163.339 365.24 365.24 365.24 11.062-0.005 21.269-5.973 26.72-15.6 5.446-9.629 5.292-21.434-0.4-30.92l-50.16-83.64c-8.73-14.546-27.613-19.248-42.16-10.52-14.539 8.729-19.24 27.576-10.52 42.12l18.96 31.64c-140.377-26.844-246.24-150.034-246.24-298.32-0.007-16.96-13.758-30.72-30.72-30.72s-30.713 13.76-30.72 30.72z" />
<glyph unicode="&#xe912;" glyph-name="money-send" data-tags="money-send" d="M0 451.4c0 280.749 227.851 508.6 508.6 508.6 16.962-0.007 30.72-13.758 30.72-30.72s-13.758-30.713-30.72-30.72c-246.816 0-447.16-200.344-447.16-447.16 0.007-246.809 200.348-447.119 447.16-447.119 246.804 0.008 447.111 200.315 447.119 447.119 0 16.962 13.758 30.712 30.72 30.72 16.966 0 30.72-13.754 30.72-30.72-0.008-280.736-227.824-508.551-508.559-508.559-280.744 0-508.593 227.815-508.6 508.559zM955.748 738.12v160.44h-160.44c-16.966 0-30.72 13.754-30.72 30.72s13.754 30.72 30.72 30.72h191.16c16.957-0.007 30.72-13.758 30.72-30.72v-191.16c-0.008-16.956-13.767-30.713-30.72-30.72-16.962 0-30.716 13.76-30.72 30.72zM964.719 951c11.997 11.995 31.445 11.99 43.442 0 11.997-11.997 11.997-31.443 0-43.44l-238.92-238.92c-11.997-11.997-31.445-11.997-43.442 0-11.989 11.998-11.993 31.445 0 43.44l238.92 238.92zM358.4 367.784c0 16.966 13.754 30.72 30.72 30.72s30.72-13.754 30.72-30.72c0-30.683 23.355-52.916 49.078-52.92h89.842c19.8 0 38.556 17.256 38.56 42.402 0 17.252-3.736 24.658-6.558 28.279-3.084 3.949-8.511 7.848-20.124 12.001l-144.040 50.237c-16.253 5.788-34.508 14.639-48.078 31.92-13.859 17.654-19.639 39.948-19.64 66.322 0 55.472 43.222 103.834 99.999 103.839h89.842c62.202 0 110.518-52.342 110.518-114.362-0.004-16.957-13.758-30.72-30.72-30.72-16.953 0.008-30.712 13.767-30.72 30.72 0 30.689-23.355 52.922-49.078 52.922h-89.842c-19.673-0.005-38.56-17.598-38.56-42.399 0-17.58 3.781-24.912 6.521-28.402 3.019-3.838 8.368-7.66 20.161-11.878h0.041l143.999-50.242c16.445-5.853 34.652-14.823 48.161-32.121 13.779-17.646 19.558-39.899 19.558-66.118-0.004-56.087-43.348-103.842-100-103.842h-89.842c-62.198 0.004-110.517 52.343-110.518 114.36zM477.868 236.372v430.081c0 16.966 13.754 30.72 30.72 30.72s30.72-13.754 30.72-30.72v-430.081c0-16.966-13.754-30.72-30.72-30.72s-30.72 13.754-30.72 30.72z" />
<glyph unicode="&#xe913;" glyph-name="mobile-payment" data-tags="mobile-payment" horiz-adv-x="737" d="M669 594.76c0 35.817-29.020 64.88-64.84 64.88h-256v-320.88h256c35.82 0 64.84 29.061 64.84 64.881v191.12zM573.44 833.72c-0.008 35.807-29.032 64.833-64.84 64.84h-382.32c-35.807-0.007-64.833-29.033-64.84-64.84v-764.6c0-35.811 29.029-64.831 64.84-64.84h382.32c35.811 0.008 64.84 29.028 64.84 64.84v208.2h-256c-16.962 0-30.713 13.758-30.72 30.72v382.32c0.007 16.96 13.758 30.72 30.72 30.72h256v112.64zM634.88 717.28c54.903-13.723 95.56-63.368 95.56-122.52v-191.12c0-59.15-40.665-108.753-95.56-122.479v-212.042c0-69.747-56.537-126.271-126.28-126.28h-382.32c-69.744 0.008-126.28 56.533-126.28 126.28v764.6c0.007 69.739 56.541 126.273 126.28 126.28h382.32c69.738-0.007 126.271-56.541 126.28-126.28v-116.44zM365.227 116.908c0-26.395-21.395-47.788-47.787-47.788s-47.787 21.393-47.787 47.788c0 26.391 21.395 47.784 47.787 47.784s47.787-21.393 47.787-47.784zM317.454 577.707h382.278c16.966 0 30.72-13.754 30.72-30.719s-13.754-30.72-30.72-30.72h-382.278c-16.966 0-30.72 13.754-30.72 30.72s13.754 30.719 30.72 30.719z" />
<glyph unicode="&#xe914;" glyph-name="scan" data-tags="scan" d="M0 599.273v116.364c0 135.178 109.186 244.364 244.364 244.364h116.364c19.28 0 34.909-15.629 34.909-34.909s-15.629-34.909-34.909-34.909h-116.364c-96.619 0-174.545-77.927-174.545-174.545v-116.364c0-19.28-15.629-34.909-34.909-34.909s-34.909 15.629-34.909 34.909zM930.909 599.273v116.364c0 96.619-77.926 174.545-174.545 174.545h-116.364c-19.279 0-34.909 15.629-34.909 34.909s15.63 34.909 34.909 34.909h116.364c135.177 0 244.364-109.186 244.364-244.364v-116.364c0-19.28-15.63-34.909-34.909-34.909s-34.909 15.629-34.909 34.909zM930.909 203.636v69.818c0 19.279 15.63 34.909 34.909 34.909s34.909-15.63 34.909-34.909v-69.818c0-135.177-109.186-244.364-244.364-244.364h-69.818c-19.279 0-34.909 15.63-34.909 34.909s15.63 34.909 34.909 34.909h69.818c96.619 0 174.545 77.926 174.545 174.545zM0 203.636v116.364c0 19.279 15.629 34.909 34.909 34.909s34.909-15.63 34.909-34.909v-116.364c0-96.619 77.927-174.545 174.545-174.545h116.364c19.28 0 34.909-15.63 34.909-34.909s-15.629-34.909-34.909-34.909h-116.364c-135.178 0-244.364 109.186-244.364 244.364zM698.182 576c0 41.164-10.263 65.629-24.683 80.046-14.415 14.417-38.879 24.682-80.044 24.682h-186.182c-41.164 0-65.629-10.265-80.046-24.682s-24.682-38.881-24.682-80.046v-232.727c0-41.165 10.265-65.629 24.682-80.044 14.417-14.42 38.881-24.683 80.046-24.683h186.182c41.165 0 65.629 10.263 80.044 24.683 14.42 14.415 24.683 38.879 24.683 80.044v232.727zM768 343.273c0-51.926-13.009-97.28-45.135-129.41-32.13-32.126-77.484-45.135-129.41-45.135h-186.182c-51.927 0-97.28 13.009-129.409 45.135-32.128 32.13-45.137 77.484-45.137 129.41v232.727c0 51.927 13.008 97.28 45.137 129.409s77.482 45.137 129.409 45.137h186.182c51.926 0 97.28-13.008 129.41-45.137 32.126-32.128 45.135-77.482 45.135-129.409v-232.727zM826.182 494.545c19.279 0 34.909-15.63 34.909-34.909s-15.63-34.909-34.909-34.909h-651.636c-19.28 0-34.909 15.63-34.909 34.909s15.629 34.909 34.909 34.909h651.636z" />
<glyph unicode="&#xe915;" glyph-name="question-circle-outlined" data-tags="question-circle-outlined" d="M512 896c-247.4 0-448-200.6-448-448 0-247.398 200.6-448 448-448 247.398 0 448 200.602 448 448 0 247.4-200.602 448-448 448zM512 76c-205.4 0-372 166.598-372 372 0 205.4 166.6 372 372 372 205.402 0 372-166.6 372-372 0-205.402-166.598-372-372-372zM623.6 643.3c-30 26.3-69.6 40.7-111.6 40.7s-81.6-14.5-111.6-40.7c-31.2-27.3-48.4-64-48.4-103.3v-7.6c0-4.4 3.6-8 8-8h48c4.4 0 8 3.6 8 8v7.6c0 44.1 43.1 80 96 80s96-35.9 96-80c0-31.1-22-59.6-56.1-72.7-21.2-8.1-39.2-22.3-52.1-40.9-13.1-19-19.9-41.8-19.9-64.9v-21.5c0-4.4 3.6-8 8-8h48c4.4 0 8 3.6 8 8v22.7c0.052 9.708 3.027 19.174 8.54 27.166s13.304 14.136 22.36 17.634c59 22.7 97.098 74.7 97.098 132.5 0.102 39.3-17.101 76-48.298 103.3zM472 228c0-10.611 4.214-20.781 11.716-28.282 7.501-7.507 17.676-11.718 28.284-11.718s20.783 4.211 28.284 11.718c7.501 7.501 11.716 17.67 11.716 28.282s-4.214 20.781-11.716 28.282c-7.501 7.507-17.676 11.718-28.284 11.718s-20.783-4.211-28.284-11.718c-7.501-7.501-11.716-17.67-11.716-28.282z" />
<glyph unicode="&#xe916;" glyph-name="add" data-tags="add" d="M941.714 521.143c35.343 0 64-28.654 64-64s-28.657-64-64-64h-877.714c-35.346 0-64 28.654-64 64s28.654 64 64 64h877.714zM438.857 18.286v877.714c0 35.346 28.654 64 64 64s64-28.654 64-64v-877.714c0-35.343-28.654-64-64-64s-64 28.657-64 64z" />
<glyph unicode="&#xe917;" glyph-name="search" data-tags="search" horiz-adv-x="973" d="M843.75 499.75c-0.005 211.775-171.725 383.45-383.5 383.45-211.77-0.007-383.443-171.68-383.45-383.45 0-211.775 171.675-383.495 383.45-383.5 211.781 0 383.5 171.72 383.5 383.5zM920.55 499.75c0-254.195-206.106-460.3-460.3-460.3-254.191 0.005-460.25 206.111-460.25 460.3 0.007 254.186 206.064 460.243 460.25 460.25 254.19 0 460.295-206.060 460.3-460.25zM726.477 211.512c14.971 15.012 39.286 15.063 54.303 0.102l165.396-165.002c15.012-14.976 15.078-39.286 0.102-54.298s-39.286-15.017-54.303-0.051l-165.396 164.951c-15.012 14.971-15.063 39.281-0.102 54.298z" />
<glyph unicode="&#xe918;" glyph-name="edit" data-tags="edit" horiz-adv-x="956" d="M618.695 958.645c56.105 7.174 111.109-14.291 164.603-61.067l10.663-9.733 0.137-0.067c57.003-53.913 85.484-111.134 81.265-171.467-4.035-57.621-37.349-104.961-72.465-142.066l-373.669-395.469c-12.218-13.182-27.947-23.941-42.267-31.601-14.667-7.837-32.157-14.834-49.2-17.865l-0.333-0.068-146.467-24.999c-40.079-6.909-79.778 3.004-108.467 30.201-28.64 27.163-40.671 66.225-36.2 106.469v0.13l16.867 147.47 0.067 0.999c2.265 16.957 8.428 34.587 15.334 49.4 6.878 14.749 16.568 31.121 28.6 43.933l0.133 0.133 373.667 395.534c35.142 37.119 80.579 72.819 137.733 80.133zM631.695 857.046c-22.008-2.818-46.941-17.757-76.4-48.867l-373.533-395.4c-2.073-2.209-6.246-8.227-10.4-17.134-4.114-8.828-6.133-16.234-6.6-19.733l-16.734-146.468c-1.394-12.896 2.749-18.596 4.934-20.664 2.142-2.034 7.9-5.789 20.6-3.604h0.066l146.134 24.938c3.428 0.608 10.623 2.956 18.933 7.4 8.425 4.506 13.724 8.881 15.533 10.868l0.6 0.662 373.733 395.535c29.471 31.134 43.049 56.764 44.599 78.867 1.359 19.406-5.871 48.654-49.329 89.8l-15.606 13.733c-34.892 28.297-59.612 32.23-76.53 30.067zM447.927 827.893c27.934 4.343 54.115-14.799 58.467-42.733 15.965-102.425 99.075-180.9 202.535-191.334 28.133-2.834 48.701-27.932 45.862-56.067-2.84-28.116-27.948-48.615-56.061-45.799-149.567 15.064-270.356 128.687-293.536 277.466-4.343 27.934 14.799 54.114 42.733 58.466zM870.4 57.078c28.276 0 51.2-22.924 51.2-51.2s-22.924-51.2-51.2-51.2h-819.2c-28.277 0-51.2 22.924-51.2 51.2s22.923 51.2 51.2 51.2h819.2z" />
<glyph unicode="&#xe919;" glyph-name="arrow-dup" data-tags="arrow-dup" horiz-adv-x="1088" d="M18.745 941.255c24.994 24.994 65.506 24.994 90.5 0l426.687-426.688c24.973-24.995 24.986-65.513 0-90.5l-426.687-426.627c-24.994-24.992-65.507-24.992-90.5 0-24.983 24.998-24.99 65.51 0 90.502l381.375 381.437-381.375 381.375c-24.994 24.994-24.994 65.507 0 90.5zM530.745 941.255c24.994 24.994 65.507 24.994 90.5 0l426.684-426.688c24.973-24.995 24.992-65.513 0-90.5l-426.684-426.627c-24.994-24.992-65.507-24.992-90.5 0-24.983 24.998-24.99 65.51 0 90.502l381.377 381.437-381.377 381.375c-24.993 24.994-24.993 65.507 0 90.5z" />
<glyph unicode="&#xe91a;" glyph-name="attachment" data-tags="attachment" d="M460.933 783.524c75.336 75.335 197.478 75.335 272.809 0.001 75.336-75.335 75.336-197.476 0-272.81l-227.554-227.557c-43.916-43.914-115.117-43.914-159.033 0-43.916 43.919-43.916 115.118 0 159.032l227.554 227.557c12.498 12.497 32.758 12.497 45.256 0s12.498-32.758 0-45.255l-227.555-227.553c-18.922-18.924-18.922-49.603 0-68.526s49.601-18.924 68.523 0l227.558 227.556c50.34 50.341 50.34 131.96-0.005 182.301-50.34 50.341-131.958 50.341-182.298 0l-227.556-227.556c-81.76-81.76-81.76-214.317 0-296.078s214.319-81.761 296.077 0l227.558 227.553c12.493 12.498 32.758 12.498 45.256 0 12.493-12.493 12.493-32.758 0-45.251l-227.558-227.558c-106.752-106.752-279.835-106.752-386.588 0s-106.754 279.835-0.001 386.589l227.556 227.555z" />
<glyph unicode="&#xe91b;" glyph-name="bag-dollar" data-tags="bag-dollar" horiz-adv-x="778" d="M432.513 413.266c-0.008 16.904-17.633 39.87-51.601 39.879-33.978 0-51.63-22.97-51.64-39.879 0-16.912 17.653-39.924 51.64-39.924 69.689-0.004 136.081-50.553 136.081-124.359s-66.392-124.355-136.081-124.359c-69.695 0-136.12 50.549-136.12 124.359 0 23.331 18.912 42.242 42.24 42.242s42.24-18.911 42.24-42.242c0-16.912 17.653-39.879 51.64-39.879 33.98 0.004 51.601 22.97 51.601 39.879s-17.621 39.875-51.601 39.879c-69.695 0-136.12 50.59-136.12 124.404 0.008 73.802 66.429 124.359 136.12 124.359 69.685-0.008 136.073-50.561 136.081-124.359 0-23.331-18.911-42.242-42.242-42.242-23.323 0.008-42.238 18.915-42.238 42.242zM338.659 495.383v70.402c0 23.328 18.912 42.24 42.24 42.24s42.238-18.912 42.238-42.24v-70.402c0-23.327-18.91-42.238-42.238-42.238s-42.24 18.911-42.24 42.238zM338.659 96.453v70.398c0 23.327 18.912 42.242 42.24 42.242s42.238-18.915 42.238-42.242v-70.398c0-23.331-18.91-42.242-42.238-42.242s-42.24 18.911-42.24 42.242zM380.885 725.357c158.32 0 298.895-101.323 348.96-251.52l12.198-36.602c82.072-246.247-101.777-500.359-361.158-500.359-259.376 0.008-443.193 254.116-361.12 500.359l12.2 36.602c50.065 150.193 190.603 251.514 348.92 251.52zM380.885 640.877c-121.953-0.006-230.235-78.064-268.8-193.762l-12.2-36.557c-63.79-191.369 79.095-389.194 281-389.202 201.914 0 344.791 197.829 281 389.202l-12.198 36.557c-38.568 115.703-146.842 193.762-268.802 193.762zM426.725 952.824c131.924 42.558 244.277-113.525 149.68-222.040l-65.761-75.44c-8.020-9.197-19.636-14.477-31.838-14.48h-195.801c-12.202 0-23.818 5.285-31.84 14.48l-65.76 75.44c-94.604 108.511 17.718 264.583 149.64 222.040l43.56-14.040c1.482-0.478 3.118-0.478 4.6 0l43.52 14.040zM512.725 786.304c34.3 39.354-3.756 104.267-60.039 86.12l-43.56-14.040c-18.341-5.916-38.099-5.913-56.44 0l-43.56 14.040c-56.295 18.16-94.35-46.764-60.040-86.12l53.12-60.96h157.399l53.121 60.96z" />
<glyph unicode="&#xe91c;" glyph-name="star" data-tags="star" d="M428.066 820.42c34.334 72.329 133.534 72.329 167.868 0l59.337-125.004c13.632-28.722 39.987-48.63 70.473-53.235l132.681-20.045c76.774-11.599 107.426-109.688 51.874-165.991l-96.009-97.301c-22.059-22.357-32.124-54.566-26.918-86.135l22.665-137.391c13.116-79.501-67.14-140.122-135.808-102.588l-118.673 64.866c-27.268 14.903-59.84 14.903-87.108 0l-118.675-64.866c-68.666-37.534-148.921 23.087-135.807 102.583l22.665 137.395c5.207 31.569-4.859 63.778-26.919 86.135l-96.009 97.301c-55.552 56.303-24.898 154.392 51.873 165.991l132.681 20.045c30.486 4.605 56.841 24.513 70.474 53.235l59.336 125.004z" />
<glyph unicode="&#xe91d;" glyph-name="filter" data-tags="filter" horiz-adv-x="1152" d="M453.134 186.074c26.502-0.006 47.99-21.504 48-48 0-26.509-21.492-48-48-48h-403.25c-26.51 0-48 21.491-48 48 0.009 26.502 21.496 48 48 48h403.25zM1036.243 806.394c26.502-0.003 47.987-21.5 48-48 0-26.509-21.491-47.998-48-48h-403.252c-26.51 0-48 21.49-48 48 0.010 26.501 21.496 48 48 48h403.252zM302.5 761.812c0 56.086-45.919 102.183-103.25 102.188-57.334 0-103.25-46.099-103.25-102.188 0.015-56.076 45.925-102.125 103.25-102.125 57.321 0.004 103.235 46.052 103.25 102.125zM398.5 761.812c-0.015-109.74-89.56-198.12-199.25-198.125-109.694 0-199.235 88.382-199.25 198.125 0 109.756 89.547 198.188 199.25 198.188 109.699-0.005 199.25-88.435 199.25-198.188zM1024.019 140.531c0 56.102-45.888 102.182-103.187 102.189-57.402 0-103.315-46.112-103.315-102.189 0.013-56.064 45.926-102.125 103.315-102.125 57.293 0.013 103.168 46.035 103.187 102.125zM1120.019 140.531c-0.019-109.715-89.485-198.112-199.187-198.125-109.734 0-199.302 88.371-199.315 198.125 0 109.766 89.568 198.189 199.315 198.189 109.715-0.010 199.187-88.461 199.187-198.189z" />
<glyph unicode="&#xe91e;" glyph-name="scan-2" data-tags="scan-2" d="M948.854 446.25c17.917 0 32.461-14.269 32.47-31.875 0-17.571-14.55-31.811-32.47-31.811h-45.312v-151.875c0-91.962-76.24-166.688-169.936-166.688h-67.971c-17.955 0.003-32.496 14.266-32.499 31.875 0 17.571 14.541 31.84 32.499 31.843h67.971c57.898 0 104.998 46.15 104.998 102.97v151.875h-111.904v-42.314c0.419-52.918-42.88-96.179-96.845-96.688h-235.69c-53.926 0.502-97.231 43.766-96.811 96.688v42.314h-111.938v-152.032c0-56.608 46.991-102.698 104.719-102.781l69.47-0.032c17.914-0.003 32.467-14.275 32.467-31.843-0.045-17.613-14.57-31.875-32.531-31.875l-69.5 0.032c-93.48 0.086-169.594 74.79-169.594 166.499v152.032h-45.281c-17.915 0.006-32.5 14.243-32.5 31.811 0.009 17.603 14.591 31.869 32.5 31.875h873.686zM629.856 672.313c25.811 0 50.608-10.168 68.656-28.281 18.176-18.284 28.259-42.844 28.218-68.406v-53.126c-0.211-6.234-5.299-11.299-11.654-11.469h-406.188c-6.315 0.211-11.403 5.277-11.531 11.469v53.126c-0.468 52.922 42.888 96.138 96.811 96.687h235.69zM733.606 832c93.731-0.006 169.936-74.74 169.936-166.656v-79.187c0-17.571-14.509-31.904-32.467-31.907-17.92 0-32.47 14.333-32.47 31.907v79.187c0 56.772-47.107 102.963-104.998 102.969h-67.971c-17.914 0-32.461 14.214-32.467 31.781 0 17.614 14.547 31.906 32.467 31.906h67.971zM359.574 832c17.917 0 32.464-14.264 32.467-31.875 0-17.572-14.506-31.844-32.467-31.844l-69.5-0.031c-57.683-0.086-104.625-46.175-104.625-102.781v-79.312c0-17.571-14.58-31.875-32.5-31.875s-32.469 14.301-32.469 31.875v79.312c0 91.711 76.080 166.416 169.563 166.5l69.532 0.031z" />
<glyph unicode="&#xe91f;" glyph-name="mobile-pay" data-tags="mobile-pay" d="M213.332 800.003c0 31.119 12.362 60.963 34.366 82.967s51.848 34.366 82.967 34.366h352c31.12 0 60.963-12.362 82.966-34.366 22.006-22.004 34.368-51.849 34.368-82.967v-703.999c0-31.12-12.362-60.963-34.368-82.966-22.003-22.006-51.846-34.368-82.966-34.368h-352c-31.119 0-60.963 12.362-82.967 34.368-22.004 22.003-34.366 51.846-34.366 82.966v703.999zM565.331 154.669c0 15.558-6.179 30.483-17.181 41.485-11.005 11.002-25.926 17.181-41.485 17.181s-30.483-6.179-41.485-17.181c-11.002-11.002-17.181-25.926-17.181-41.485s6.179-30.48 17.181-41.482c11.002-11.005 25.926-17.184 41.485-17.184s30.48 6.179 41.485 17.184c11.002 11.002 17.181 25.923 17.181 41.482z" />
<glyph unicode="&#xe920;" glyph-name="withdraw" data-tags="withdraw" d="M626.336 476.112c0-63.142-51.187-114.33-114.333-114.33-63.142 0-114.333 51.187-114.333 114.33 0 63.146 51.19 114.333 114.333 114.333 63.146 0 114.333-51.187 114.333-114.333zM927.61 863.618c-20.896 20.884-48.672 32.382-78.202 32.382h-674.809c-29.531 0-57.306-11.498-78.217-32.396-20.884-20.904-32.382-48.672-32.382-78.204v-112.473c0-29.532 11.498-57.299 32.396-78.218 20.904-20.883 48.672-32.374 78.204-32.374h5.606v193.082c0 14.492 11.751 26.25 26.25 26.25h611.103c14.493 0 26.25-11.758 26.25-26.25v-193.082h5.6c29.53 0 57.299 11.498 78.218 32.394 20.883 20.899 32.381 48.674 32.381 78.198v112.473c0 29.532-11.498 57.299-32.397 78.217zM232.699 82.48c0-22.045 8.586-42.758 24.152-58.304 15.572-15.594 36.285-24.179 58.332-24.179h393.643c22.045 0 42.758 8.586 58.304 24.154 15.587 15.571 24.173 36.285 24.173 58.33v646.692h-558.603v-646.692zM512.003 642.949c91.994 0 166.832-74.841 166.832-166.831 0-91.994-74.838-166.832-166.832-166.832-91.99 0-166.832 74.838-166.832 166.832 0 91.99 74.842 166.831 166.832 166.831zM371.421 193.078h281.165c14.499 0 26.25-11.75 26.25-26.25 0-14.493-11.75-26.25-26.25-26.25h-281.165c-14.499 0-26.25 11.757-26.25 26.25 0 14.499 11.75 26.25 26.25 26.25z" />
<glyph unicode="&#xe921;" glyph-name="transfer" data-tags="transfer" d="M932 341.331c-15.456 0-28 12.544-28 28 0 108.080-87.92 196-196 196h-270.666v-121.331c0-24.64-29.645-37.11-47.341-20.237l-205.332 196c-5.525 5.264-8.661 12.582-8.661 20.237 0 7.652 3.136 14.97 8.661 20.234l205.332 196c17.773 16.949 47.341 4.331 47.341-20.235v-121.333h233.331c159.526 0 289.334-129.808 289.334-289.334v-56c0-15.456-12.544-28-28-28zM586.666 70.678v121.331h-233.331c-159.526 0-289.334 129.808-289.334 289.334v56c0 15.456 12.544 28 28 28s28-12.544 28-28c0-108.080 87.92-196 196-196h270.666v121.334c0 24.528 29.533 37.258 47.341 20.234l205.331-196c5.526-5.264 8.662-12.582 8.662-20.234 0-7.654-3.136-14.973-8.662-20.237l-205.331-196c-17.808-16.947-47.341-4.33-47.341 20.237z" />
<glyph unicode="&#xe922;" glyph-name="top-up" data-tags="top-up" d="M907.501 395.501c-17.741 0-165.398 0-157.501 0-57.907 0-105.002-47.091-105.002-105.002 0-57.907 47.091-104.998 105.002-104.998 17.741 0 165.398 0 157.501 0 28.941 0 52.499 23.555 52.499 52.499 0 5.834 0 110.682 0 105.002 0 28.941-23.555 52.499-52.499 52.499zM750 264.25c-14.496 0-26.25 11.754-26.25 26.25s11.75 26.25 26.25 26.25c14.496 0 26.25-11.747 26.25-26.25 0-14.496-11.754-26.25-26.25-26.25zM459.501 633.501c72.365 0 131.248 58.88 131.248 131.249 0 72.364-58.88 131.25-131.248 131.25-72.365 0-131.251-58.881-131.251-131.25 0-72.364 58.88-131.249 131.251-131.249zM459.501 791c14.496 0 26.25-11.749 26.25-26.25 0-14.495-11.754-26.25-26.25-26.25s-26.25 11.753-26.25 26.25c0 14.495 11.747 26.25 26.25 26.25zM828.755 659.857c0 14.438-11.706 26.143-26.144 26.143h-177.789c-9.194-19.208-21.462-37.198-37.126-52.499h241.059c0 5.286 0 31.643 0 26.356zM592.499 290.493c0 86.848 70.65 157.501 157.501 157.501 7.078 0 138.627 0 131.251 0v106.749c0 14.701-11.549 26.25-26.253 26.25-8.931 0-752.224 0-764.748 0-8.979 0-17.691 1.786-26.25 4.835v-507.085c0-43.571 35.173-78.749 78.75-78.749h712.248c14.701 0 26.253 11.549 26.253 26.25v106.749c-7.078 0-138.627 0-131.251 0-86.848 0-157.501 70.65-157.501 157.501zM90.25 686c-14.702 0-26.25-11.548-26.25-26.25 0-14.698 11.548-26.249 26.25-26.249h241.062c-15.666 15.301-27.937 33.291-37.129 52.499h-203.933z" />
<glyph unicode="&#xe923;" glyph-name="users-2" data-tags="users-2" horiz-adv-x="1408" d="M1024 176c0 5.37-2.426 14.81-15.872 28.064-13.626 13.421-35.795 27.718-67.066 40.749-62.336 25.971-151.776 43.187-253.062 43.187-101.285 0-190.725-17.216-253.062-43.187-31.273-13.030-53.441-27.328-67.062-40.749-13.45-13.254-15.875-22.694-15.875-28.064s2.426-14.81 15.875-28.064c13.622-13.421 35.789-27.718 67.062-40.749 62.337-25.971 151.777-43.187 253.062-43.187s190.726 17.216 253.062 43.187c31.27 13.030 53.44 27.328 67.066 40.749 13.446 13.254 15.872 22.694 15.872 28.064zM1120 176c0-38.81-19.091-71.469-44.499-96.499-25.235-24.858-59.296-45.018-97.504-60.941-76.64-31.93-179.206-50.56-289.997-50.56-110.792 0-213.357 18.63-290 50.56-38.204 15.923-72.264 36.083-97.5 60.941-25.409 25.030-44.5 57.69-44.5 96.499s19.091 71.469 44.5 96.499c25.236 24.858 59.297 45.018 97.5 60.938 76.643 31.935 179.208 50.563 290 50.563 110.79 0 213.357-18.628 289.997-50.563 38.208-15.921 72.269-36.081 97.504-60.938 25.408-25.030 44.499-57.69 44.499-96.499zM832 720c0 79.529-64.474 144-144 144-79.529 0-144-64.471-144-144s64.471-144 144-144c79.526 0 144 64.471 144 144zM928 720c0-132.548-107.45-240-240-240-132.548 0-240 107.452-240 240s107.452 240 240 240c132.55 0 240-107.452 240-240zM332.687 383.266c-58.334-31.641-103.309-70.972-129.812-115.125-15.78-4.218-30.291-8.979-43.313-14.189-25.601-10.24-43.121-21.248-53.437-31.002-10.031-9.485-10.125-14.554-10.125-14.938 0-0.218-0.073-5.286 10.125-14.938 10.314-9.754 27.833-20.755 53.437-30.995 5.652-2.266 11.619-4.352 17.812-6.438 5.021-40.41 24.819-78.458 56.438-112.563-40.677 6.982-77.928 17.069-109.937 29.875-32.286 12.915-61.625 29.51-83.688 50.374-22.169 20.966-40.188 49.568-40.188 84.685 0.005 35.117 18.019 63.725 40.188 84.691 22.063 20.858 51.404 37.458 83.688 50.374 56.567 22.626 129.472 36.899 208.812 40.188zM1043.302 383.266c79.341-3.287 152.25-17.563 208.813-40.188 32.282-12.916 61.626-29.517 83.686-50.374 22.17-20.966 40.186-49.574 40.192-84.691 0-35.123-18.016-63.718-40.192-84.685-22.061-20.864-51.398-37.459-83.686-50.374-32.026-12.813-69.293-22.893-109.997-29.875 31.635 34.112 51.411 72.147 56.435 112.563 6.214 2.093 12.205 4.166 17.875 6.438 25.606 10.24 43.123 21.242 53.44 30.995 10.202 9.658 10.125 14.72 10.125 14.938 0 0.384-0.096 5.453-10.125 14.938-10.317 9.754-27.84 20.762-53.44 31.002-13.037 5.216-27.571 9.971-43.373 14.189-26.509 44.141-71.43 83.491-129.754 115.125zM1007.981 832c97.203 0 176-78.798 176-176s-78.797-176-176-176c-31.078 0.003-60.224 8.17-85.562 22.312 21.952 23.633 40.378 50.559 54.438 80 9.568-4.049 20.077-6.31 31.123-6.312 44.186 0 80 35.817 80 80s-35.814 80-80 80c-0.128 0-0.25 0.001-0.378 0-1.632 33.192-8.378 65.034-19.373 94.813 6.49 0.725 13.069 1.187 19.75 1.187zM368 832c6.659 0 13.22-0.467 19.688-1.187-10.989-29.771-17.679-61.63-19.313-94.813-0.125 0.001-0.25 0-0.375 0-44.183 0-80-35.817-80-80s35.817-80 80-80c11.024 0 21.507 2.279 31.062 6.312 14.053-29.437 32.491-56.369 54.438-80-25.333-14.124-54.437-22.312-85.5-22.312-97.202 0-176 78.798-176 176s78.798 176 176 176z" />
<glyph unicode="&#xe924;" glyph-name="users-1" data-tags="users-1" d="M716.8 179.2c0 27.105-22.979 61.962-83.748 92.349-58.481 29.24-141.951 48.451-236.252 48.451s-177.772-19.21-236.25-48.451c-60.773-30.387-83.75-65.244-83.75-92.349s22.977-61.962 83.75-92.349c58.479-29.24 141.949-48.451 236.25-48.451s177.772 19.21 236.252 48.451c60.769 30.387 83.748 65.244 83.748 92.349zM793.6 179.2c0-71.864-57.262-126.582-126.198-161.050-71.24-35.62-166.964-56.55-270.602-56.55s-199.364 20.931-270.6 56.55c-68.938 34.468-126.2 89.185-126.2 161.050s57.262 126.582 126.2 161.050c71.237 35.62 166.962 56.55 270.6 56.55s199.363-20.931 270.602-56.55c68.936-34.468 126.198-89.185 126.198-161.050zM563.2 716.8c0 91.9-74.5 166.4-166.4 166.4s-166.4-74.5-166.4-166.4c0-91.9 74.5-166.4 166.4-166.4s166.4 74.5 166.4 166.4zM640 716.8c0-134.316-108.882-243.2-243.2-243.2-134.316 0-243.2 108.884-243.2 243.2s108.884 243.2 243.2 243.2c134.318 0 243.2-108.884 243.2-243.2zM670.218 856.813c97.869-8.802 174.592-91.039 174.602-191.2 0-106.032-85.97-191.989-192-192-20.050 0-39.383 3.101-57.554 8.8 23.132 19.603 43.259 42.579 59.75 68.15 62.597 1.185 113.004 52.17 113.004 115.050-0.005 47.135-28.355 87.617-68.9 105.45-5.417 30.369-15.263 59.173-28.902 85.75zM691.318 395.761c73.728-3.651 141.179-17.597 193.5-39.404 30.561-12.733 57.815-28.867 78.003-48.748 20.321-20.024 35.594-46.157 35.599-77.199 0-31.043-15.283-57.18-35.599-77.199-20.188-19.881-47.447-36.019-78.003-48.753-16.251-6.769-34.002-12.703-52.9-17.9 16.082 28.201 25.052 58.373 25.549 89.851 23.828 10.163 40.883 21.14 51.451 31.549 10.747 10.593 12.703 18.156 12.703 22.451-0.005 4.296-1.956 11.858-12.703 22.451-10.895 10.732-28.636 22.175-53.647 32.599-12.662 5.274-26.742 10.086-41.999 14.351-28.897 37.192-70.723 69.898-121.953 95.949z" />
<glyph unicode="&#xe925;" glyph-name="notification-ringing" data-tags="notification-ringing" d="M852.132 711.811v0zM825.897 691.621c6.84-16.297 25.59-23.967 41.887-17.131s23.972 25.589 17.132 41.887l-59.018-24.756zM715.884 883.043c-16.41 6.564-35.031-1.417-41.595-17.826s1.418-35.033 17.828-41.596l23.767 59.422zM711.132 850.478v0zM173.942 711.811v0zM141.156 716.377c-6.836-16.297 0.834-35.050 17.132-41.887s35.051 0.834 41.887 17.131l-59.018 24.756zM333.959 823.621c16.409 6.563 24.39 25.187 17.827 41.596s-25.187 24.39-41.596 17.826l23.769-59.422zM314.939 850.478v0zM778.22 577.058v0zM797.302 408.95v0zM226.699 408.95v0zM245.779 577.058v0zM189.771 325.453v0zM834.227 325.453v0zM608.85 773.389h-32c0-13.678 8.694-25.844 21.632-30.275l10.368 30.275zM415.148 773.389l10.365-30.275c12.941 4.431 21.635 16.596 21.635 30.275h-32zM669.962 95.437c6.205 16.548-2.186 34.99-18.734 41.196-16.548 6.2-34.99-2.186-41.196-18.739l59.93-22.456zM413.964 117.893c-6.202 16.553-24.646 24.94-41.195 18.739-16.549-6.205-24.937-24.648-18.735-41.196l59.93 22.456zM822.62 699.433l3.277-7.812 59.018 24.756-3.277 7.812-59.018-24.756zM692.116 823.621l7.132-2.854 23.772 59.422-7.137 2.854-23.767-59.422zM881.638 724.189c-29.839 71.148-86.984 127.347-158.618 156.001l-23.772-59.422c55.716-22.287 100.163-65.997 123.372-121.334l59.018 24.756zM144.433 724.189l-3.277-7.812 59.018-24.756 3.277 7.812-59.018 24.756zM310.19 883.043l-7.135-2.854 23.769-59.422 7.135 2.854-23.769 59.422zM203.451 699.433c23.212 55.337 67.656 99.047 123.373 121.334l-23.769 59.422c-71.635-28.654-128.778-84.853-158.622-156.001l59.018-24.756zM758.492 224h-492.986v-64h492.986v64zM746.424 573.449l19.077-168.109 63.596 7.214-19.082 168.112-63.59-7.218zM258.494 405.34l19.080 168.109-63.592 7.218-19.080-168.112 63.591-7.214zM214.138 304.712c24.632 28.938 40.166 63.708 44.356 100.628l-63.591 7.214c-2.682-23.634-12.689-46.607-29.499-66.355l48.735-41.487zM765.501 405.34c4.193-36.92 19.727-71.69 44.36-100.628l48.732 41.487c-16.809 19.748-26.813 42.721-29.496 66.355l-63.596-7.214zM265.506 224c-27.949 0-47.718 13.819-56.843 29.901-8.809 15.524-8.679 34.181 5.475 50.811l-48.735 41.487c-32.651-38.359-33.66-86.426-12.403-123.884 20.941-36.905 62.442-62.316 112.505-62.316v64zM758.492 160c50.063 0 91.566 25.411 112.507 62.316 21.253 37.458 20.244 85.524-12.406 123.884l-48.732-41.487c14.152-16.63 14.285-35.287 5.473-50.811-9.124-16.082-28.892-29.901-56.842-29.901v-64zM640.85 773.389v4.425h-64v-4.425h64zM810.015 580.666c-11.914 104.975-89.779 188.409-190.797 222.998l-20.736-60.549c81.802-28.006 139.279-93.345 147.942-169.666l63.59 7.218zM447.148 773.389v4.425h-64v-4.425h64zM277.575 573.449c8.662 76.321 66.142 141.66 147.939 169.666l-20.731 60.549c-101.020-34.588-178.885-118.023-190.799-222.998l63.592-7.218zM511.999 842.665c35.815 0 64.851-29.034 64.851-64.851h64c0 71.162-57.687 128.851-128.851 128.851v-64zM511.999 906.665c-71.162 0-128.851-57.689-128.851-128.851h64c0 35.816 29.034 64.851 64.851 64.851v64zM610.033 117.893c-13.768-36.736-51.758-64.563-98.034-64.563v-64c71.911 0 134.473 43.418 157.963 106.107l-59.93 22.456zM511.999 53.33c-46.276 0-84.266 27.827-98.035 64.563l-59.93-22.456c23.495-62.689 86.051-106.107 157.965-106.107v64z" />
<glyph unicode="&#xe926;" glyph-name="user-2" data-tags="user-2" horiz-adv-x="819" d="M716.8 179.2c0 27.105-22.979 61.962-83.748 92.349-58.481 29.24-141.951 48.451-236.252 48.451s-177.772-19.21-236.25-48.451c-60.773-30.387-83.75-65.244-83.75-92.349s22.977-61.962 83.75-92.349c58.479-29.24 141.949-48.451 236.25-48.451s177.772 19.21 236.252 48.451c60.769 30.387 83.748 65.244 83.748 92.349zM793.6 179.2c0-71.864-57.262-126.582-126.198-161.050-71.24-35.62-166.964-56.55-270.602-56.55s-199.364 20.931-270.6 56.55c-68.938 34.468-126.2 89.185-126.2 161.050s57.262 126.582 126.2 161.050c71.237 35.62 166.962 56.55 270.6 56.55s199.363-20.931 270.602-56.55c68.936-34.468 126.198-89.185 126.198-161.050zM563.2 716.8c0 91.9-74.5 166.4-166.4 166.4s-166.4-74.5-166.4-166.4c0-91.9 74.5-166.4 166.4-166.4s166.4 74.5 166.4 166.4zM640 716.8c0-134.316-108.882-243.2-243.2-243.2-134.316 0-243.2 108.884-243.2 243.2s108.884 243.2 243.2 243.2c134.318 0 243.2-108.884 243.2-243.2z" />
<glyph unicode="&#xe927;" glyph-name="money-recive" data-tags="money-recive" d="M561.486 247.689h-88.607c-62.686 0-114.059 52.785-114.059 117.827 0 19.323 16.025 35.348 35.348 35.348s35.348-16.025 35.348-35.348c0-25.921 19.323-47.131 43.363-47.131h88.607c18.38 0 32.993 16.493 32.993 36.76 0 25.452-7.072 29.219-23.097 34.879l-141.867 49.486c-30.163 10.371-70.696 32.518-70.696 101.802 0 58.914 46.662 107.462 103.689 107.462h88.607c62.687 0 114.059-52.785 114.059-117.827 0-19.323-16.025-35.348-35.348-35.348s-35.348 16.025-35.348 35.348c0 25.921-19.323 47.131-43.363 47.131h-88.607c-18.38 0-32.993-16.493-32.993-36.76 0-25.452 7.072-29.219 23.097-34.879l141.867-49.486c30.163-10.371 70.696-32.518 70.696-101.802 0-59.388-46.662-107.462-103.689-107.462zM512 200.558c-19.323 0-35.348 16.025-35.348 35.348v424.188c0 19.323 16.025 35.348 35.348 35.348s35.348-16.025 35.348-35.348v-424.188c0-19.323-16.025-35.348-35.348-35.348zM512-58.667c-279.491 0-506.667 227.175-506.667 506.667s227.175 506.667 506.667 506.667c19.323 0 35.348-16.025 35.348-35.348s-16.025-35.348-35.348-35.348c-240.37 0-435.971-195.595-435.971-435.971s195.595-435.971 435.971-435.971c240.37 0 435.971 195.595 435.971 435.971 0 19.323 16.025 35.348 35.348 35.348s35.348-16.025 35.348-35.348c0-279.491-227.175-506.667-506.667-506.667zM936.188 648.311h-188.529c-19.323 0-35.348 16.025-35.348 35.348v188.529c0 19.323 16.025 35.348 35.348 35.348s35.348-16.025 35.348-35.348v-153.181h153.181c19.323 0 35.348-16.025 35.348-35.348s-16.025-35.348-35.348-35.348zM747.655 648.314c-8.953 0-17.911 3.299-24.977 10.371-13.669 13.669-13.669 36.291 0 49.961l235.659 235.659c13.669 13.669 36.291 13.669 49.961 0s13.669-36.291 0-49.961l-235.659-235.659c-7.072-7.072-16.025-10.371-24.977-10.371z" />
<glyph unicode="&#xe928;" glyph-name="google-pay" data-tags="google-pay" d="M523.355 959.874c116.515-2.586 228.675-44.857 317.924-119.808 16.656-13.989 18.834-38.843 4.844-55.5s-38.841-18.796-55.501-4.808c-75.512 63.417-170.409 99.158-268.997 101.346-98.588 2.187-194.979-29.306-273.232-89.308-78.256-60.009-133.689-144.947-157.154-240.732-23.463-95.779-13.576-196.695 28.077-286.074 41.657-89.383 112.564-161.91 201-205.54 88.441-43.63 189.143-55.757 285.423-34.422 96.276 21.335 182.386 74.87 244.114 151.769 53.472 66.615 85.827 147.314 93.538 231.806h-378.884c-21.744 0.008-39.385 17.64-39.385 39.385 0.004 21.748 17.64 39.381 39.385 39.385h420.116c10.445 0 20.46-4.151 27.845-11.536 7.389-7.389 11.54-17.404 11.54-27.849 0-116.543-39.775-229.608-112.731-320.5-72.952-90.88-174.718-154.171-288.5-179.381-113.786-25.214-232.788-10.835-337.307 40.728-104.512 51.566-188.308 137.251-237.538 242.885-49.228 105.637-60.961 224.922-33.231 338.117 27.734 113.193 93.288 213.545 185.769 284.461 92.478 70.908 206.377 108.159 322.885 105.577z" />
<glyph unicode="&#xe929;" glyph-name="apple-pay" data-tags="apple-pay" horiz-adv-x="827" d="M468.267 670.154c32.784 14.131 77.399 30.77 125.117 27.192h0.039c19.763-1.333 56.899-9.402 96.228-27.307 39.676-18.061 85.173-47.753 117.386-94.731 6.294-9.177 8.428-20.599 5.845-31.422-2.58-10.819-9.633-20.039-19.381-25.387-12.040-6.593-32.551-10.567-62.657-33.654-26.852-20.59-48.506-48.924-48.191-88.923 1.115-103.503 93.286-116.645 105.153-120.883 15.671-5.597 26.151-20.437 26.155-37.077 0-65.867-39.44-140.272-84.307-195.501-23.107-28.436-49.495-54.15-76.461-73.074-25.994-18.239-57.092-33.386-88.694-33.386-44.969 0-71.412 7.767-94.232 14.923-20.256 6.353-35.182 11.347-63.307 11.347-29.611 0-50.848-4.978-73.231-10.925-22.432-5.959-48.909-13.879-82.615-15.305-0.555-0.024-1.138-0.039-1.692-0.039-41.242 0.004-76.959 22.922-104.962 50.924-28.57 28.57-53.793 66.97-74.654 108.69-41.567 83.137-69.808 187.609-69.808 273.617 0 69.872 13.815 149.748 51.385 213.615 38.745 65.865 103.194 114.573 198.038 114.577 38.957 0 77.036-17.296 103.923-30.039 14.942-7.082 26.394-12.821 37.077-17.231 5.093-2.102 9.11-3.498 12.229-4.346 2.796-0.76 4.116-0.871 4.309-0.885-0.662-0.001 0.433-0.084 4.076 0.961 3.489 1.002 7.987 2.653 13.848 5.077 13.635 5.64 24.296 10.964 43.382 19.192zM512 960c10.445 0 20.46-4.152 27.845-11.538 7.389-7.386 11.54-17.401 11.54-27.846 0-38.3-15.226-75.033-42.307-102.115-27.081-27.078-63.819-42.308-102.116-42.308-20.39 0.006-37.143 15.523-39.153 35.385l-0.231 4 0.192 7.192c1.775 35.683 16.734 69.539 42.114 94.923 27.085 27.082 63.815 42.308 102.116 42.308zM78.769 369.231c0-71.53 24.298-163.982 61.5-238.383 18.523-37.045 39.227-67.572 59.885-88.233 20.882-20.882 37.472-27.593 48.731-27.806 22.868 1.103 40.301 6.231 64.615 12.69 24.755 6.577 53.716 13.54 93.461 13.54 40.771 0 65.288-8.188 86.886-14.962 19.019-5.967 36.892-11.307 70.652-11.307 7.778 0 22.65 4.541 43.422 19.117 19.799 13.891 41.019 34.154 60.577 58.23 31.492 38.754 54.3 81.818 62.885 117.461-45.466 17.924-126.224 67.237-127.5 185.498v0.079c-0.642 73.901 41.125 123.124 79.037 152.194 8.676 6.652 18.034 12.768 27.077 18.113-16.416 13.694-34.749 24.577-53 32.885-31.917 14.529-59.817 19.812-68.884 20.423h-0.382c-27.368 2.12-56.903-7.422-88.308-20.962-13.060-5.629-32.063-14.539-44.426-19.654-12.792-5.293-30.562-12-48.037-12-17.151 0.003-33.94 5.978-46.577 11.192-13.165 5.434-28.026 12.806-40.769 18.846-28.514 13.514-51.386 22.461-70.192 22.461-62.678-0.004-103.262-30.053-130.154-75.769-28.064-47.718-40.5-112.254-40.5-173.655z" />
<glyph unicode="&#xe92a;" glyph-name="paypal" data-tags="paypal" horiz-adv-x="945" d="M840.192 448c0 66.773-18.708 126.036-55.847 170.577-10.378-63.825-44.749-123.402-90.23-168.883-54.756-54.76-129.934-93.578-208.384-93.578h-131.269c-3.441 0-5.143-0.591-5.769-0.847-0.533-0.217-0.935-0.473-1.462-1.040-1.378-1.485-4.51-6.25-6.423-17.731-0.152-0.91-0.361-1.831-0.577-2.729l-63-262.538c-0.248-1.036-0.713-2.005-1.038-3.001l-6.846-48.191h127.115c0.264 0 0.544-0.035 0.807-0.039 3.068-0.059 6.065 0.969 8.464 2.887 2.395 1.914 4.037 4.612 4.651 7.613l31.271 187.656 0.729 3.497c4.482 17.184 20.063 29.424 38.116 29.424h136.539c55.501 0.004 112.112 22.406 154.691 59.309 42.472 36.805 68.462 85.658 68.462 137.614zM196.923 881.231c-0.319 0-3.951-0.566-8.269-4.884-1.892-1.895-3.238-3.901-4.038-5.615-0.388-0.83-0.621-1.499-0.731-1.962-0.091-0.383-0.075-0.601-0.077-0.654 0-1.862-0.16-3.733-0.423-5.577l-104.385-730.655c0.123-0.417 0.287-0.953 0.577-1.575 0.802-1.721 2.178-3.753 4.077-5.656 4.26-4.254 7.836-4.832 8.231-4.844h116l55.615 231.771c3.499 19.401 10.866 39.971 26 56.269 16.795 18.085 39.506 27.038 64.961 27.038h131.269c52.831 0 108.989 26.797 152.694 70.498 43.693 43.701 70.495 99.829 70.498 152.655 0 70.376-22.126 125.436-58.884 162.731-36.675 37.204-91.585 60.462-164.309 60.462h-288.807zM918.961 448c0-79.325-39.629-148.63-95.614-197.155-55.875-48.423-130.54-78.533-206.308-78.537h-103.192l-26.002-156.152c-0.075-0.465-0.173-0.929-0.268-1.386-4.297-21.067-15.864-39.952-32.654-53.386-16.589-13.265-37.242-20.322-58.463-20.074v-0.039l-141.769 0.039c-9.573-0.079-19.053 1.871-27.769 5.845-8.954 4.084-16.89 10.134-23.192 17.692-6.3 7.562-10.826 16.459-13.231 26.002-2.214 8.795-2.498 17.952-1 26.884h-0.077l3.346 23.308h-100.884c-25.925 0.004-48.552 12.556-63.923 27.924-15.374 15.372-27.962 38.022-27.962 63.961 0 1.863 0.121 3.734 0.385 5.577l104.885 734.346c1.417 23.939 13.271 44.765 27.693 59.192 15.373 15.374 38.024 27.962 63.961 27.962h288.807c90.061 0 166.475-29.238 220.384-83.923 39.385-39.956 64.733-91.533 75.54-150.461 94.681-62.496 137.307-167.256 137.307-277.615z" />
<glyph unicode="&#xe92b;" glyph-name="empty-wallet-tick" data-tags="empty-wallet-tick" d="M213.333 320c-40.107 0-77.227-14.080-106.667-37.547-39.253-31.147-64-79.36-64-133.12 0-32 8.96-62.293 24.747-87.893 29.44-49.493 83.627-82.773 145.92-82.773 43.093 0 82.347 15.787 112.213 42.667 13.227 11.093 24.747 24.747 33.707 40.107 15.787 25.6 24.747 55.893 24.747 87.893 0 94.293-76.373 170.667-170.667 170.667zM301.653 167.68l-90.88-84.053c-5.973-5.547-14.080-8.533-21.76-8.533-8.107 0-16.213 2.987-22.613 9.387l-42.24 42.24c-12.373 12.373-12.373 32.853 0 45.227s32.853 12.373 45.227 0l20.48-20.48 68.267 63.147c12.8 11.947 33.28 11.093 45.227-1.707s11.093-33.28-1.707-45.227zM633.6 791.465v-162.133h-64v162.133c0 11.52-10.24 17.067-17.067 17.067-2.133 0-4.267-0.427-6.4-1.28l-338.347-127.573c-22.613-8.533-37.12-29.867-37.12-54.187v-28.587c-38.827-29.013-64-75.518-64-127.998v156.585c0 50.773 31.147 96 78.507 113.92l338.773 128c9.387 3.413 19.2 5.12 28.587 5.12 42.667 0 81.067-34.56 81.067-81.067zM917.333 341.333v-42.667c0-11.52-8.96-20.907-20.907-21.333h-62.293c-22.613 0-43.093 16.64-44.8 38.827-1.28 13.227 3.84 25.6 12.373 34.133 7.68 8.107 18.347 12.373 29.867 12.373h64.427c12.373-0.427 21.333-9.813 21.333-21.333zM831.147 407.467h43.52c23.467 0 42.667 19.2 42.667 42.667v18.773c0 88.32-72.107 160.427-160.427 160.427h-489.813c-36.267 0-69.547-11.947-96.427-32.427-38.827-29.013-64-75.52-64-128v-75.947c0-16.213 17.067-26.453 32.427-21.333 23.893 8.107 49.067 12.373 74.24 12.373 129.28 0 234.667-105.387 234.667-234.667 0-30.72-8.107-64.427-20.907-94.293-6.827-15.36 3.84-33.707 20.48-33.707h309.333c88.32 0 160.427 72.107 160.427 160.427v8.107c0 23.467-19.2 42.667-42.667 42.667h-37.12c-40.96 0-80.213 25.173-90.88 64.853-8.533 32.427 1.707 64 23.040 84.48 15.787 16.213 37.547 25.6 61.44 25.6zM597.333 416h-213.333c-17.493 0-32 14.507-32 32s14.507 32 32 32h213.333c17.493 0 32-14.507 32-32s-14.507-32-32-32z" />
<glyph unicode="&#xe92c;" glyph-name="profile" data-tags="profile" d="M737.877 648.915c0-125.314-100.476-225.794-225.877-225.794-125.359 0-225.877 100.48-225.877 225.794s100.518 225.751 225.877 225.751c125.402 0 225.877-100.438 225.877-225.751zM512 21.333c-185.072 0-341.333 30.080-341.333 146.133 0 116.1 157.243 145.114 341.333 145.114 185.114 0 341.333-30.080 341.333-146.138 0-116.096-157.244-145.109-341.333-145.109z" />
<glyph unicode="&#xe92d;" glyph-name="card" data-tags="card" d="M204.801 755.198c-27.158 0-53.204-10.789-72.407-29.992s-29.993-45.25-29.993-72.408v-51.2h819.199v51.2c0 27.158-10.786 53.204-29.99 72.408s-45.252 29.992-72.41 29.992h-614.399zM921.6 499.2h-819.199v-256c0-27.162 10.789-53.205 29.993-72.41s45.249-29.995 72.407-29.995h614.399c27.157 0 53.205 10.79 72.41 29.995s29.99 45.248 29.99 72.41v256zM204.801 294.4c0 13.577 5.394 26.598 14.996 36.203 9.602 9.6 22.624 14.997 36.204 14.997h51.2c13.579 0 26.602-5.397 36.204-14.997 9.602-9.604 14.996-22.626 14.996-36.203 0-13.581-5.394-26.603-14.996-36.207-9.602-9.6-22.625-14.993-36.204-14.993h-51.2c-13.579 0-26.602 5.393-36.204 14.993-9.602 9.604-14.996 22.626-14.996 36.207zM460.8 345.6h51.2c13.581 0 26.603-5.397 36.207-14.997 9.6-9.604 14.993-22.626 14.993-36.203 0-13.581-5.393-26.603-14.993-36.207-9.604-9.6-22.626-14.993-36.207-14.993h-51.2c-13.577 0-26.603 5.393-36.203 14.993-9.602 9.604-14.996 22.626-14.996 36.207 0 13.577 5.394 26.598 14.996 36.203 9.6 9.6 22.626 14.997 36.203 14.997z" />
<glyph unicode="&#xe92e;" glyph-name="home" data-tags="home" d="M389.751 73.673v130.462c0 33.301 27.195 60.301 60.741 60.301h122.633c16.111 0 31.561-6.353 42.953-17.664 11.392-11.307 17.792-26.645 17.792-42.637v-130.462c-0.102-13.845 5.367-27.162 15.194-36.988s23.198-15.351 37.141-15.351h83.665c39.074-0.098 76.587 15.241 104.252 42.633s43.213 64.589 43.213 103.381v371.667c0 31.334-13.99 61.057-38.204 81.16l-284.612 225.655c-49.506 39.565-120.444 38.288-168.474-3.034l-278.118-222.621c-25.356-19.511-40.51-49.321-41.259-81.16v-371.287c0-80.853 66.022-146.394 147.463-146.394h81.754c28.968 0 52.51 23.202 52.72 51.959l1.146 0.38z" />
<glyph unicode="&#xe92f;" glyph-name="mastercard" data-tags="mastercard" horiz-adv-x="1268" d="M910.224 456.129c0 80.79-65.497 146.284-146.286 146.284-80.794 0-146.286-65.495-146.286-146.284 0-80.794 65.492-146.286 146.286-146.286 80.789 0 146.286 65.492 146.286 146.286zM1007.748 456.129c0-134.656-109.158-243.81-243.81-243.81-134.656 0-243.81 109.154-243.81 243.81 0 134.651 109.154 243.808 243.81 243.808 134.651 0 243.81-109.157 243.81-243.808zM259.986 456.129c0 47.075 13.626 93.165 39.238 132.665 25.61 39.491 62.124 70.699 105.095 89.905 42.973 19.204 90.59 25.596 137.094 18.334 46.514-7.267 89.932-27.883 125.001-59.286 20.066-17.964 21.772-48.794 3.808-68.857-17.964-20.048-48.796-21.721-68.857-3.762-21.041 18.835-47.099 31.164-75.001 35.524-27.897 4.356-56.457 0.563-82.236-10.952-25.788-11.525-47.728-30.301-63.095-54-15.359-23.695-23.524-51.334-23.524-79.57 0-28.238 8.165-55.876 23.524-79.575 15.368-23.698 37.307-42.472 63.095-53.999 25.779-11.518 54.34-15.306 82.236-10.952 27.902 4.359 53.96 16.691 75.001 35.523 20.061 17.959 50.893 16.286 68.857-3.76 17.964-20.066 16.257-50.893-3.808-68.857-35.070-31.403-78.487-52.019-125.001-59.29-46.504-7.261-94.121-0.868-137.094 18.334-42.971 19.207-79.485 50.415-105.095 89.907-25.612 39.497-39.238 85.587-39.238 132.667zM1170.286 781.191c0 44.884-36.401 81.286-81.286 81.286h-910.19c-44.884 0-81.286-36.402-81.286-81.286v-650.143c0-44.885 36.402-81.286 81.286-81.286h910.19c44.885 0 81.286 36.401 81.286 81.286v650.143zM1267.81 131.048c0-98.743-80.062-178.81-178.81-178.81h-910.19c-98.745 0-178.809 80.067-178.809 178.81v650.143c0 98.745 80.065 178.809 178.809 178.809h910.19c98.748 0 178.81-80.065 178.81-178.809v-650.143z" />
<glyph unicode="&#xe930;" glyph-name="edit-rectangle" data-tags="edit-rectangle" d="M0 192v542.118c0 124.752 101.131 225.882 225.882 225.882h271.059c24.95 0 45.176-20.226 45.176-45.176s-20.226-45.176-45.176-45.176h-271.059c-74.851 0-135.529-60.679-135.529-135.529v-542.118c0-74.848 60.679-135.529 135.529-135.529h542.118c74.848 0 135.529 60.681 135.529 135.529v271.059c0 24.95 20.227 45.176 45.176 45.176s45.176-20.226 45.176-45.176v-271.059c0-124.753-101.129-225.882-225.882-225.882h-542.118c-124.752 0-225.882 101.129-225.882 225.882zM696.175 920c53.332 53.317 139.794 53.325 193.12 0l64.584-64.588c53.326-53.324 53.32-139.788 0-193.117l-64.349-64.295c-0.199-0.198-0.392-0.393-0.59-0.588l-301.234-301.295c-20.892-20.89-47.989-34.467-77.236-38.647l-135.706-19.354c-59.953-8.547-111.316 42.815-102.765 102.767l19.353 135.705c4.179 29.246 17.759 56.343 38.648 77.236l366.175 366.176zM393.882 489.941c-7.063-7.067-11.645-16.226-13.058-26.117l-19.412-135.704v-0.181c0 0 0.047-0.102 0.176-0.235 0.13-0.126 0.236-0.175 0.236-0.175h0.176l135.706 19.414c9.891 1.41 19.050 5.993 26.117 13.057l247.706 247.765c-23.522 11.587-49.628 28.802-75.354 54.53-25.751 25.754-43.002 51.874-54.585 75.412l-247.708-247.765zM825.35 856.118c-18.040 18.024-47.255 18.027-65.289 0l-48.592-48.529c0.765-3.072 1.699-6.51 2.946-10.236 6.12-18.371 18.854-44.387 45.646-71.176 26.787-26.789 52.802-39.523 71.174-45.647 3.698-1.232 7.12-2.118 10.18-2.882l48.586 48.529c18.028 18.040 18.022 47.253 0 65.294l-64.651 64.647z" />
<glyph unicode="&#xe931;" glyph-name="logout" data-tags="logout" d="M0 417.925v85.702c0 62.706-0.151 99.402 6.35 132.55 34.941 178.158 181.755 253.726 331.45 295.95 58.335 16.455 94.674 27.045 125.4 27.8 127.146 3.111 223.361-94.187 227.949-209.65 0.829-21.181-15.667-39.008-36.849-39.85-21.171-0.828-38.994 15.629-39.849 36.8-2.949 74.175-64.788 137.968-149.351 135.9-18.523-0.453-43.053-7.067-106.45-24.95-143.324-40.426-250.862-103.784-276.95-236.8-4.713-24.046-4.9-51.75-4.9-117.75v-85.702c0-66.002 0.186-93.706 4.9-117.75 26.088-133.012 133.626-196.367 276.95-236.8 63.391-17.879 87.924-24.494 106.45-24.95l15.6 0.353c76.473 5.581 130.986 66.017 133.751 135.547 0.855 21.171 18.678 37.632 39.849 36.803 21.181-0.845 37.678-18.673 36.849-39.849-4.588-115.461-100.803-212.762-227.949-209.654-30.723 0.758-67.057 11.346-125.4 27.802-149.694 42.23-296.508 117.796-331.45 295.951-6.502 33.142-6.35 69.842-6.35 132.547zM804.449 615.527c14.776 15.203 39.091 15.567 54.303 0.8 4.669-4.542 14.003-12.035 27.899-22.95 13.020-10.229 28.861-22.558 43.899-35.3 14.868-12.597 30.295-26.706 42.301-40.8 6.011-7.062 11.965-15.039 16.548-23.6 4.424-8.266 9.001-19.676 9.001-32.9s-4.577-24.635-9.001-32.899c-4.582-8.561-10.537-16.538-16.548-23.603-12.006-14.090-27.433-28.201-42.301-40.796-15.037-12.744-30.879-25.073-43.899-35.302-13.896-10.916-23.229-18.406-27.899-22.948-15.212-14.771-39.526-14.403-54.303 0.799-14.766 15.212-14.403 39.521 0.799 54.298 8.274 8.038 21.432 18.371 33.951 28.201 13.404 10.527 27.981 21.924 41.702 33.551 0.118 0.097 0.23 0.2 0.348 0.302h-484.449c-21.208 0-38.4 17.188-38.4 38.398 0 21.208 17.192 38.4 38.4 38.4h484.449c-0.118 0.099-0.23 0.201-0.348 0.3-13.722 11.625-28.298 23.023-41.702 33.55-12.518 9.833-25.677 20.164-33.951 28.2-15.201 14.777-15.565 39.091-0.799 54.3z" />
<glyph unicode="&#xe932;" glyph-name="flashlight-off" data-tags="flashlight-off" d="M768.004 746.667v42.667c0 46.933-38.4 85.333-85.333 85.333h-341.335c-36.693 0-67.413-23.040-79.787-55.467l72.533-72.533h433.922zM682.671 490.667l85.333 128v42.667h-348.588l263.255-263.253v92.587zM89.603 810.24c-3.955-3.947-7.093-8.636-9.234-13.798s-3.243-10.694-3.243-16.282c0-5.588 1.102-11.121 3.243-16.282s5.279-9.85 9.234-13.798l251.733-251.733v-391.68c0-46.933 38.4-85.333 85.335-85.333h170.667c46.933 0 85.333 38.4 85.333 85.333v49.92l130.987-130.987c7.974-7.979 18.795-12.459 30.080-12.459 11.281 0 22.101 4.48 30.080 12.459 7.974 7.979 12.459 18.799 12.459 30.080s-4.484 22.101-12.459 30.080l-724.055 724.48c-3.947 3.955-8.636 7.093-13.797 9.234s-10.695 3.243-16.283 3.243c-5.588 0-11.121-1.102-16.282-3.243s-9.85-5.279-13.798-9.234z" />
<glyph unicode="&#xe933;" glyph-name="mobile-protection" data-tags="mobile-protection" horiz-adv-x="838" d="M0 320.223v279.275c0 75.803-0.077 136.183 6.273 183.409 6.486 48.227 20.26 87.943 51.682 119.364 26.158 26.154 58.165 40.143 96.273 47.818 37.145 7.481 82.243 9.369 136.318 9.909 19.274 0.192 35.072-15.274 35.273-34.545 0.192-19.274-15.274-35.072-34.546-35.273-54.185-0.54-93.312-2.466-123.272-8.5-28.993-5.839-46.982-15.076-60.682-28.773-16.29-16.29-26.42-38.827-31.864-79.318-5.578-41.493-5.636-96.316-5.636-174.091v-279.275c0-77.782 0.057-132.641 5.636-174.136 5.444-40.481 15.575-63.027 31.864-79.318 16.289-16.282 38.838-26.373 79.318-31.818 41.494-5.576 96.316-5.637 174.091-5.637s132.599 0.061 174.089 5.637c40.481 5.446 63.027 15.537 79.318 31.818 16.291 16.291 26.419 38.838 31.865 79.318 5.581 41.495 5.637 96.354 5.637 174.136v69.818c0.009 19.274 15.635 34.909 34.909 34.909s34.9-15.635 34.909-34.909v-69.818c0-75.799 0.074-136.178-6.274-183.408-6.484-48.235-20.257-87.98-51.679-119.408-31.423-31.414-71.14-45.154-119.366-51.638-47.23-6.349-107.599-6.274-183.408-6.274s-136.18-0.074-183.409 6.274c-48.224 6.484-87.942 20.224-119.363 51.638-31.424 31.427-45.197 71.173-51.682 119.408-6.348 47.23-6.273 107.608-6.273 183.408zM626.32 519.18c-6.27-1.791-12.916-1.791-19.186 0l9.593 33.545 9.593-33.545zM744.727 845.635c-37.446 4.075-69.883 13.963-94.408 23.773-13.633 5.452-24.944 11.048-33.592 15.591-8.648-4.543-19.959-10.139-33.592-15.591-24.525-9.809-56.962-19.698-94.408-23.773v-83.455c0-67.907 33.289-111.014 68.091-138.363 17.617-13.843 35.444-23.384 48.863-29.455 4.189-1.894 7.955-3.296 11.045-4.5 3.095 1.204 6.856 2.606 11.045 4.5 13.419 6.071 31.246 15.612 48.863 29.455 34.802 27.35 68.091 70.456 68.091 138.363v83.455zM814.545 762.18c0-94.991-48.17-156.62-94.818-193.273-23.101-18.146-46.015-30.436-63.139-38.182-8.602-3.894-15.895-6.674-21.136-8.546-2.607-0.932-4.724-1.643-6.27-2.136-0.777-0.247-1.434-0.446-1.908-0.591-0.237-0.071-0.433-0.135-0.591-0.182-0.084-0.024-0.168-0.073-0.228-0.091h-0.093c-0.014-0.005-0.042-0.020-9.635 33.545l-9.635-33.545h-0.093c-0.061 0.018-0.144 0.067-0.228 0.091-0.158 0.047-0.354 0.111-0.591 0.182-0.475 0.144-1.131 0.344-1.908 0.591-1.545 0.494-3.663 1.205-6.27 2.136-5.241 1.872-12.535 4.652-21.136 8.546-17.124 7.746-40.038 20.035-63.139 38.182-46.648 36.652-94.818 98.282-94.818 193.273v116.364c0 19.28 15.629 34.909 34.909 34.909 40.858 0 77.098 10.249 103.41 20.773 13.061 5.225 23.431 10.423 30.408 14.227 3.482 1.899 6.121 3.448 7.773 4.455 0.819 0.5 1.396 0.88 1.727 1.091 0.116 0.074 0.219 0.102 0.275 0.136 11.711 7.789 26.922 7.789 38.633 0 0.056-0.035 0.158-0.062 0.275-0.136 0.33-0.211 0.908-0.591 1.727-1.091 1.652-1.007 4.291-2.556 7.773-4.455 6.977-3.804 17.347-9.002 30.408-14.227 26.312-10.524 62.552-20.773 103.41-20.773l3.589-0.182c17.594-1.798 31.32-16.66 31.32-34.728v-116.364zM407.273 168.909c19.28 0 34.909-15.63 34.909-34.909s-15.629-34.909-34.909-34.909h-93.091c-19.28 0-34.909 15.63-34.909 34.909s15.629 34.909 34.909 34.909h93.091z" />
<glyph unicode="&#xe934;" glyph-name="warning" data-tags="warning" d="M453.818 226.909c0 25.707 20.838 46.545 46.545 46.545s46.545-20.838 46.545-46.545c0-25.707-20.838-46.545-46.545-46.545s-46.545 20.838-46.545 46.545zM930.909 459.636c0 237.784-192.763 430.545-430.545 430.545-237.784 0-430.545-192.762-430.545-430.545 0-237.782 192.762-430.545 430.545-430.545s430.545 192.763 430.545 430.545zM465.455 366.545v325.818c0 19.28 15.63 34.909 34.909 34.909s34.909-15.629 34.909-34.909v-325.818c0-19.279-15.63-34.909-34.909-34.909s-34.909 15.63-34.909 34.909zM1000.727 459.636c0-276.345-224.019-500.364-500.364-500.364-276.343 0-500.364 224.019-500.364 500.364 0 276.343 224.020 500.364 500.364 500.364 276.345 0 500.364-224.020 500.364-500.364z" />
<glyph unicode="&#xe935;" glyph-name="flip-camera" data-tags="flip-camera" d="M853.333 746.667h-135.253l-52.907 57.6c-7.953 8.73-17.634 15.705-28.437 20.48-10.799 4.775-22.473 7.246-34.283 7.253h-180.907c-23.893 0-46.933-10.24-63.147-27.733l-52.48-57.6h-135.253c-46.933 0-85.333-38.4-85.333-85.333v-512c0-46.933 38.4-85.333 85.333-85.333h682.667c46.933 0 85.333 38.4 85.333 85.333v512c0 46.933-38.4 85.333-85.333 85.333zM583.253 204.8c-22.187-8.107-46.080-12.8-71.253-12.8-117.76 0-213.333 95.573-213.333 213.333h-85.333l106.667 106.667 106.667-106.667h-85.333c0-94.293 76.373-170.667 170.667-170.667 19.627 0 38.827 3.413 56.32 9.813 2.65 1.207 5.521 1.86 8.431 1.916 2.914 0.051 5.803-0.491 8.495-1.604 2.692-1.109 5.129-2.761 7.155-4.855 2.027-2.091 3.601-4.574 4.629-7.3 1.024-2.726 1.481-5.636 1.335-8.542-0.145-2.91-0.887-5.76-2.18-8.367-1.293-2.611-3.106-4.928-5.329-6.81-2.227-1.877-4.813-3.281-7.603-4.117zM704 298.667l-106.667 106.667h85.333c0 94.293-76.373 170.667-170.667 170.667-19.627 0-38.827-3.413-56.32-9.813-2.65-1.209-5.521-1.861-8.431-1.915-2.914-0.054-5.803 0.492-8.495 1.603s-5.129 2.763-7.155 4.855c-2.027 2.092-3.601 4.577-4.629 7.303-1.025 2.726-1.479 5.633-1.335 8.542s0.887 5.757 2.179 8.367c1.293 2.61 3.106 4.927 5.329 6.807 2.227 1.879 4.813 3.281 7.603 4.119 22.187 8.107 46.080 12.8 71.253 12.8 117.76 0 213.333-95.573 213.333-213.333h85.333l-106.667-106.667z" />
<glyph unicode="&#xe936;" glyph-name="mentoring" data-tags="mentoring" d="M407.286 308.364l5.545-0.456c12.682-2.034 23.434-10.938 27.591-23.408l85.136-255.409h161.001c19.279 0 34.909-15.63 34.909-34.909s-15.63-34.909-34.909-34.909h-558.546c-15.026 0-28.385 9.607-33.137 23.864l-93.091 279.273c-3.548 10.645-1.742 22.351 4.818 31.455s17.097 14.499 28.318 14.499h372.364zM153.195 29.091h298.727l-69.818 209.455h-298.727l69.818-209.455zM465.469 413.091v23.273c0 44.87-0.069 75.017-3.092 97.5-2.888 21.475-7.889 30.662-13.954 36.727s-15.253 11.067-36.728 13.954c-22.483 3.023-52.629 3.091-97.5 3.091s-75.017-0.068-97.5-3.091c-21.476-2.888-30.662-7.889-36.727-13.954s-11.067-15.252-13.955-36.727c-3.023-22.483-3.091-52.63-3.091-97.5v-23.273c0-19.279-15.629-34.909-34.909-34.909s-34.909 15.63-34.909 34.909v23.273c0 42.896-0.067 78.601 3.727 106.818 3.93 29.212 12.578 55.578 33.772 76.773s47.56 29.843 76.773 33.772c28.216 3.794 63.921 3.727 106.818 3.727s78.601 0.067 106.818-3.727c29.212-3.93 55.579-12.578 76.772-33.772 21.197-21.195 29.845-47.561 33.773-76.773 3.793-28.217 3.728-63.922 3.728-106.818v-23.273c0-19.279-15.63-34.909-34.909-34.909s-34.909 15.63-34.909 34.909zM791.287 413.091c0 32.135-26.047 58.182-58.182 58.182s-58.182-26.047-58.182-58.182c0-32.135 26.047-58.182 58.182-58.182s58.182 26.047 58.182 58.182zM861.105 413.091c0-70.693-57.307-128-128-128s-128 57.307-128 128c0 70.693 57.307 128 128 128s128-57.307 128-128zM372.377 832c0 32.133-26.049 58.182-58.182 58.182s-58.182-26.049-58.182-58.182c0-32.133 26.049-58.182 58.182-58.182s58.182 26.049 58.182 58.182zM442.195 832c0-70.692-57.308-128-128-128s-128 57.308-128 128c0 70.692 57.307 128 128 128s128-57.308 128-128zM930.923 87.273v23.273c0 32.135-26.047 58.182-58.182 58.182h-279.273c-19.279 0-34.909 15.63-34.909 34.909s15.63 34.909 34.909 34.909h279.273c70.693 0 128-57.307 128-128v-23.273c0-70.693-57.307-128-128-128h-46.545c-19.279 0-34.909 15.63-34.909 34.909s15.63 34.909 34.909 34.909h46.545c32.135 0 58.182 26.047 58.182 58.182z" />
<glyph unicode="&#xe937;" glyph-name="ic_twotone-fingerprint" data-tags="ic_twotone-fingerprint" d="M759.892 769.28c-3.412 0-6.825 0.853-9.812 2.56-81.92 42.24-152.748 60.16-237.652 60.16-84.48 0-164.695-20.053-237.655-60.16-10.24-5.547-23.039-1.707-29.013 8.533-2.661 4.99-3.258 10.825-1.662 16.251s5.256 10.008 10.195 12.763c79.359 43.093 166.399 65.28 258.135 65.28 90.88 0 170.24-20.054 257.28-64.854 10.665-5.546 14.505-18.346 8.96-28.586-1.69-3.557-4.344-6.565-7.667-8.679-3.32-2.113-7.171-3.246-11.108-3.268zM149.333 545.28c-3.933-0.036-7.799 1.016-11.17 3.044s-6.114 4.948-7.926 8.438c-1.812 3.492-2.621 7.416-2.338 11.338 0.283 3.924 1.647 7.693 3.941 10.888 42.24 59.732 96 106.665 160.001 139.519 133.972 69.12 305.492 69.546 439.892 0.426 64-32.853 117.76-79.361 160-138.665 1.638-2.294 2.803-4.89 3.433-7.634 0.63-2.747 0.707-5.591 0.23-8.369-0.474-2.775-1.495-5.43-3.003-7.811s-3.474-4.439-5.78-6.054c-9.812-6.828-23.040-4.692-29.865 5.12-37.366 52.89-86.996 95.933-144.64 125.44-122.455 62.72-279.043 62.72-401.068-0.428-58.027-29.865-106.667-72.532-145.067-126.292-3.414-5.972-9.814-8.96-16.64-8.96zM416 30.292c-2.798-0.033-5.573 0.517-8.143 1.62-2.573 1.103-4.884 2.732-6.792 4.78-37.12 37.12-57.172 61.015-85.76 112.64-29.44 52.48-44.8 116.48-44.8 185.175 0 126.72 108.375 229.972 241.495 229.972s241.492-103.252 241.492-229.972c0-11.948-9.385-21.335-21.332-21.335s-21.335 9.388-21.335 21.335c0 103.252-89.172 187.305-198.825 187.305s-198.828-84.052-198.828-187.305c0-61.44 13.655-118.188 39.68-164.268 27.308-49.068 46.080-69.972 78.932-103.252 8.108-8.535 8.108-21.76 0-30.295-4.692-4.265-10.237-6.4-15.785-6.4zM721.92 109.228c-50.772 0-95.572 12.8-132.268 37.972-63.572 43.092-101.548 113.068-101.548 187.308 0 11.945 9.388 21.332 21.335 21.332 11.945 0 21.332-9.388 21.332-21.332 0-60.16 30.72-116.908 82.775-151.895 30.292-20.48 65.705-30.292 108.372-30.292 10.24 0 27.305 1.28 44.372 4.268 11.52 2.132 22.615-5.548 24.748-17.495 2.132-11.52-5.548-22.612-17.495-24.745-24.32-4.695-45.652-5.12-51.625-5.12zM636.16 21.332c-1.708 0-3.84 0.428-5.548 0.855-67.84 18.772-112.212 43.945-158.72 89.6-29.471 29.1-52.838 63.785-68.736 102.029-15.9 38.244-24.008 79.273-23.849 120.691 0 69.12 58.88 125.44 131.412 125.44s131.412-56.32 131.412-125.44c0-45.655 39.68-82.775 88.748-82.775 49.065 0 88.748 37.12 88.748 82.775 0 160.852-138.668 291.412-309.335 291.412-121.172 0-232.108-67.412-282.026-171.948-16.64-34.56-25.173-75.092-25.173-119.465 0-33.28 2.986-85.76 28.586-154.028 4.267-11.092-1.28-23.468-12.373-27.308-11.093-4.265-23.467 1.708-27.307 12.375-20.559 53.96-31.114 111.214-31.146 168.96 0 51.2 9.813 97.705 29.013 138.24 56.747 119.040 182.614 196.265 320.426 196.265 194.135 0 352-149.76 352-334.080 0-69.12-58.88-125.44-131.412-125.44-72.535 0-131.412 56.32-131.412 125.44 0 45.655-39.683 82.775-88.748 82.775-49.068 0-88.748-37.12-88.748-82.775 0-72.96 28.16-141.225 79.788-192.425 40.532-40.108 79.36-62.295 139.52-78.935 11.52-2.985 17.92-14.932 14.932-26.025-2.132-9.815-11.092-16.215-20.052-16.215z" />
<glyph unicode="&#xe938;" glyph-name="forgot-password" data-tags="forgot-password" horiz-adv-x="931" d="M0 296.727c0 55.291 5.856 109.107 12.727 160.317 12.582 93.796 90.043 168.082 185.636 172.502 66.245 3.056 133.535 4.636 207.545 4.636 74.012 0 141.298-1.58 207.546-4.636 60.407-2.789 113.603-33.582 147.638-79.227 11.515-15.456 8.318-37.342-7.14-48.863-15.453-11.517-37.339-8.32-48.863 7.136-22.323 29.943-56.646 49.418-94.86 51.182-65.145 3.005-131.351 4.591-204.321 4.591s-139.176-1.585-204.318-4.591c-60.543-2.799-111.405-50.316-119.681-112.001-6.743-50.255-12.091-100.436-12.091-151.045 0-50.604 5.349-100.79 12.091-151.045 8.276-61.687 59.138-109.2 119.681-112.002 65.143-3.002 131.349-4.589 204.318-4.589s139.176 1.587 204.321 4.589c19.256 0.889 35.607-14.015 36.496-33.271s-14.015-35.607-33.271-36.501c-66.243-3.053-133.534-4.636-207.546-4.636s-141.3 1.583-207.545 4.636c-95.593 4.422-173.055 78.708-185.636 172.502-6.87 51.209-12.727 105.025-12.727 160.317zM780.181 29.091c19.279 0 34.909-15.63 34.909-34.909s-15.63-34.909-34.909-34.909h-0.545c-19.279 0-34.909 15.63-34.909 34.909s15.63 34.909 34.909 34.909h0.545zM744.727 113.864v22.998c0 37.046 18.399 67.649 35.547 90.954 8.699 11.827 18.39 23.459 26.633 33.592 8.62 10.598 15.97 19.921 21.821 28.909 5.767 8.862 9.090 19.382 9.090 30.729-0.014 31.195-25.688 57.135-58.182 57.135s-58.168-25.94-58.182-57.135c0-19.284-15.63-34.909-34.909-34.909s-34.909 15.625-34.909 34.909c0.014 70.474 57.679 126.953 128 126.953s127.986-56.478 128-126.953c0-25.311-7.503-48.994-20.41-68.822-8.057-12.381-17.464-24.204-26.135-34.863-9.048-11.12-17.189-20.894-24.59-30.953-15.067-20.48-21.955-35.742-21.955-49.548v-22.998c-0.005-19.279-15.63-34.909-34.909-34.909s-34.904 15.63-34.909 34.909zM581.818 599.273v116.364c0 96.399-78.145 174.545-174.545 174.545s-174.545-78.147-174.545-174.545v-116.364c0-19.28-15.629-34.909-34.909-34.909s-34.909 15.629-34.909 34.909v116.364c0 134.958 109.406 244.364 244.364 244.364s244.364-109.406 244.364-244.364v-116.364c0-19.28-15.63-34.909-34.909-34.909s-34.909 15.629-34.909 34.909zM407.273 296.82v0.451c0 25.707 20.839 46.545 46.545 46.545s46.545-20.838 46.545-46.545v-0.451c0-25.707-20.838-46.545-46.545-46.545s-46.545 20.838-46.545 46.545zM221.091 296.82v0.451c0 25.707 20.839 46.545 46.545 46.545s46.545-20.838 46.545-46.545v-0.451c0-25.707-20.839-46.545-46.545-46.545s-46.545 20.838-46.545 46.545z" />
<glyph unicode="&#xe939;" glyph-name="user-settings-2" data-tags="user-settings-2" horiz-adv-x="977" d="M478.734 400.863c19.251-0.903 34.122-17.245 33.224-36.501-0.903-19.247-17.245-34.122-36.496-33.224-88.661 4.119-178.212-17.119-256.183-63.549-36.712-21.858-89.928-48.244-124.227-81.818-16.762-16.407-23.902-29.952-25.045-40.406-0.906-8.304 1.213-21.979 22.182-41.956 48.212-45.926 97.186-74.319 156.409-74.319h251.772c19.279 0 34.909-15.63 34.909-34.909s-15.63-34.909-34.909-34.909h-251.772c-84.633 0-150.066 41.649-204.591 93.594-31.598 30.106-47.355 63.981-43.409 100.087 3.712 33.96 24.148 61.696 45.636 82.73 42.2 41.295 108.23 74.561 137.364 91.909 90.12 53.653 193.287 78.010 295.137 73.272zM628.368 715.636c0 96.399-78.145 174.545-174.545 174.545s-174.545-78.147-174.545-174.545c0-96.399 78.147-174.545 174.545-174.545s174.545 78.147 174.545 174.545zM698.186 715.636c0-134.958-109.405-244.364-244.363-244.364s-244.364 109.406-244.364 244.364c0 134.958 109.406 244.364 244.364 244.364s244.363-109.406 244.363-244.364zM915.233 374.319c16.030-0.991 28.253-14.792 27.271-30.818l-12.041-194.458c-1.503-24.264-2.728-44.516-5.32-60.863-2.667-16.812-7.154-32.372-16.91-46.364-8.462-12.125-19.363-22.346-32-30.045-14.564-8.872-30.329-12.418-47.272-14.043-16.477-1.583-36.776-1.545-61.091-1.545-24.353 0-44.688-0.037-61.184 1.545-16.957 1.624-32.745 5.162-47.318 14.043-12.642 7.713-23.538 17.985-32 30.138-9.751 14.015-14.262 29.575-16.905 46.41-2.574 16.365-3.761 36.65-5.227 60.951l-11.729 194.23c-0.968 16.030 11.245 29.84 27.271 30.818 16.030 0.968 29.84-11.245 30.818-27.271l11.729-194.276c1.536-25.423 2.597-42.435 4.636-55.408 1.969-12.507 4.44-18.358 7.135-22.225 3.845-5.525 8.806-10.184 14.545-13.684 4.026-2.453 10.003-4.608 22.593-5.818 13.070-1.252 30.152-1.271 55.636-1.271 25.446 0 42.491 0.019 55.547 1.271 12.572 1.206 18.52 3.37 22.542 5.818 5.744 3.5 10.696 8.159 14.545 13.684 2.695 3.863 5.204 9.667 7.182 22.132 2.057 12.958 3.156 29.966 4.729 55.366l11.999 194.411c0.991 16.026 14.792 28.248 30.818 27.271zM768.689 442.182c9.56 0 18.637 0.005 26.317-0.68 8.225-0.74 16.966-2.411 25.726-6.959 3.254-1.685 6.377-3.621 9.318-5.818 7.908-5.893 13.21-13.019 17.455-20.089 3.97-6.609 7.922-14.801 12.093-23.408l5.274-10.91h77.68c16.063 0 29.082-13.033 29.091-29.091 0-16.067-13.023-29.091-29.091-29.091h-349.091c-16.067 0-29.091 13.023-29.091 29.091 0.009 16.058 13.033 29.091 29.091 29.091h79.318l3.956 8.727c4.068 8.923 7.908 17.375 11.818 24.227 4.18 7.322 9.453 14.718 17.455 20.862v0.047c2.97 2.281 6.149 4.287 9.453 6.046 8.918 4.743 17.869 6.507 26.275 7.275 7.852 0.712 17.147 0.68 26.954 0.68zM768.689 384c-10.85 0-17.073-0.037-21.686-0.456-2.793-0.251-3.924-0.568-4.226-0.68-0.461-0.247-0.898-0.545-1.317-0.866 0.307 0.247-0.414-0.047-2.406-3.542-0.684-1.201-1.313-2.583-2.095-4.138h63.046c-0.875 1.662-1.61 3.114-2.365 4.361-1.997 3.333-2.69 3.631-2.406 3.412l-1.317 0.819c-0.317 0.112-1.41 0.438-4.091 0.68-4.496 0.4-10.552 0.41-21.136 0.41z" />
<glyph unicode="&#xe93a;" glyph-name="language-skill" data-tags="language-skill" d="M0 459.636c0.001 19.279 15.63 34.91 34.909 34.91s34.908-15.631 34.909-34.91c0-36.357 5.136-71.457 14.545-104.727h199.318c-1.547 18.576-2.833 37.581-3.545 56.911-0.702 19.251 14.339 35.416 33.59 36.138 19.267 0.707 35.472-14.327 36.182-33.592 0.751-20.378 2.161-40.225 3.864-59.457h100.045c19.279 0 34.909-15.63 34.909-34.909s-15.63-34.909-34.909-34.909h-91.5c7.638-48.063 18.106-90.387 30.773-124.635 11.606-31.376 24.28-54.104 36.409-68.366 12.271-14.42 20.587-16.454 24.318-16.454 19.279 0 34.909-15.63 34.909-34.909s-15.63-34.909-34.909-34.909c-197.65 0-365.717 126.329-428 302.545-16.739 47.365-25.818 98.295-25.818 151.273zM111.773 285.091c47.89-93.659 133.027-165.064 235.909-194.588-7.325 14.071-14.010 29.449-20.046 45.773-15.47 41.83-27.637 92.477-35.955 148.815h-179.909zM547.547 913.456c197.646 0 365.717-126.331 427.999-302.545 14.071-39.802 22.728-82.138 25.135-126.093 1.057-19.247-13.703-35.714-32.954-36.771-19.251-1.052-35.719 13.703-36.771 32.954-1.578 28.766-6.312 56.664-13.866 83.364h-199.317c2.178-26.172 3.589-53.192 4.091-80.818 0.354-19.274-14.997-35.193-34.271-35.547-19.27-0.344-35.198 15.002-35.547 34.276-0.517 28.333-2.034 55.788-4.366 82.089h-100.133c-19.279 0-34.909 15.629-34.909 34.909s15.63 34.908 34.909 34.909h91.587c-7.121 44.825-16.78 84.68-28.36 117.682-11.799 33.621-24.888 58.243-37.59 73.773-12.93 15.8-21.774 18-25.637 18-19.279 0-34.909 15.629-34.909 34.909s15.63 34.908 34.909 34.909zM653.638 828.82c8.499-16.326 16.193-34.427 22.998-53.818 14.099-40.176 25.246-87.98 33.047-140.818h179.907c-47.9 93.674-133.050 165.119-235.953 194.636zM0 771.636c0 25.048-0.017 45.669 1.182 62.455 1.222 17.109 3.844 32.962 10.5 48.091 12.412 28.211 34.022 51.372 61.5 64.955 14.945 7.386 30.603 10.264 47.136 11.591 16.117 1.294 35.854 1.273 59.409 1.273h41.364c42.84 0 78.708 0.090 107.091-3.955 29.598-4.22 56.131-13.55 77.227-35.909 20.822-22.075 29.238-49.35 33.091-79.727 3.751-29.573 3.682-67.067 3.682-112.636v-105.136c0-19.167 0.090-37.356-1.864-51.364-1.894-13.578-7.12-34.959-28.091-46.863h-0.046c-21.825-12.368-43.093-4.733-55.545 1.5-12.441 6.231-26.955 16.603-41.863 27.136l-4.864 3.455c-25.042 17.694-31.731 21.966-38.636 24.182-6.796 2.179-14.392 2.546-44.5 2.546h-47.045c-23.555 0-43.292-0.021-59.409 1.273-16.533 1.327-32.191 4.205-47.136 11.591-27.478 13.582-49.087 36.743-61.5 64.955-6.656 15.128-9.278 30.982-10.5 48.091-1.2 16.791-1.182 37.441-1.182 62.5zM69.818 771.636c0-26.065 0.020-43.819 1-57.546 0.957-13.384 2.711-20.217 4.773-24.909 6.085-13.831 16.358-24.477 28.545-30.5 3.759-1.856 9.522-3.607 21.773-4.591 12.677-1.017 29.138-1.045 53.818-1.045h47.045c25.835 0 46.235 0.372 65.818-5.909 19.477-6.25 36.082-18.439 57.591-33.637l4.864-3.409c6.595-4.66 12.215-8.556 17.136-11.909 0.132 6.495 0.182 14.496 0.182 24.455v105.136c0 47.438-0.072 79.707-3.136 103.863-2.96 23.332-8.163 33.771-14.591 40.591-6.164 6.533-15.229 11.676-36.318 14.682-22.317 3.18-52.3 3.273-97.227 3.273h-41.364c-24.68 0-41.142-0.028-53.818-1.045-12.252-0.984-18.014-2.735-21.773-4.591-12.187-6.023-22.46-16.669-28.545-30.5-2.062-4.693-3.815-11.525-4.773-24.909-0.98-13.722-1-31.448-1-57.5zM930.909 213.090c0 26.051-0.019 43.781-1.001 57.502-0.959 13.382-2.709 20.215-4.771 24.906-6.083 13.833-16.356 24.478-28.546 30.501-3.756 1.857-9.519 3.607-21.774 4.589-12.674 1.019-29.137 1.047-53.816 1.047h-41.365c-44.926 0-74.91-0.093-97.229-3.272-21.085-3.007-30.152-8.15-36.315-14.68-6.433-6.819-11.632-17.259-14.592-40.592-3.067-24.157-3.137-56.427-3.137-103.866v-105.132c0-9.961 0.005-17.962 0.135-24.455 4.929 3.356 10.575 7.238 17.185 11.906l4.864 3.412c21.499 15.192 38.079 27.383 57.544 33.634h0.047c19.582 6.279 39.973 5.911 65.815 5.911h47.048c24.678 0 41.142 0.028 53.816 1.043 12.255 0.987 18.018 2.737 21.774 4.594 12.19 6.023 22.463 16.668 28.546 30.497 2.062 4.692 3.812 11.525 4.771 24.911 0.982 13.726 1.001 31.479 1.001 57.544zM1000.727 213.090c0-25.060 0.019-45.708-1.182-62.501-1.071-14.96-3.207-28.965-8.183-42.361l-2.318-5.73c-12.409-28.211-34.020-51.372-61.501-64.954-14.941-7.387-30.604-10.263-47.137-11.59-16.114-1.294-35.854-1.271-59.406-1.271h-47.048c-22.57 0-32.493-0.205-38.907-1.229l-5.59-1.317c-6.907-2.22-13.601-6.488-38.637-24.18l-4.864-3.458c-14.909-10.533-29.421-20.904-41.863-27.136-12.451-6.232-33.759-13.889-55.589-1.499-20.973 11.902-26.2 33.285-28.095 46.862-1.95 14.010-1.862 32.2-1.862 51.368v105.132c0 45.573-0.070 83.065 3.682 112.64 3.854 30.376 12.269 57.651 33.089 79.728 21.099 22.36 47.63 31.688 77.228 35.905 28.383 4.045 64.251 3.956 107.092 3.956h41.365c23.552 0 43.292 0.019 59.406-1.271 16.533-1.331 32.195-4.208 47.137-11.594 27.48-13.582 49.091-36.738 61.501-64.954l2.318-5.725c4.976-13.4 7.112-27.401 8.183-42.366 1.201-16.784 1.182-37.409 1.182-62.455zM222.273 832c0 8.348 6.745 15.126 15.091 15.136 8.354 0 15.137-6.782 15.137-15.136v-4.136h61.682c8.354 0 15.137-6.782 15.137-15.137-0.007-8.348-6.786-15.136-15.137-15.136h-23.863c-7.372-20.5-18.815-39.64-31.546-56.864l17.954-18.636c5.773-6.022 5.56-15.578-0.454-21.364-6.021-5.783-15.575-5.607-21.364 0.409l-15.364 15.955c-11.964-13.536-24.224-25.663-35.318-35.864-6.15-5.651-15.71-5.239-21.364 0.909-5.651 6.15-5.239 15.71 0.909 21.363 11.354 10.441 23.694 22.744 35.455 36.318-2.455 3.16-4.925 6.443-7.227 9.636-4.7 6.518-9.49 13.758-11.955 19.045-3.524 7.571-0.252 16.562 7.318 20.091 7.569 3.521 16.561 0.247 20.091-7.318 1.125-2.414 4.367-7.585 9.091-14.136 0.651-0.903 1.373-1.771 2.046-2.682 7.478 10.703 13.99 21.808 19.045 33.137h-83.091c-8.35 0-15.13 6.788-15.136 15.136 0 8.355 6.782 15.137 15.136 15.137h47.727v4.136zM779.636 274.627c6.107 0 11.604-3.682 13.954-9.318l46.545-111.728c3.202-7.708-0.428-16.561-8.136-19.773-7.703-3.207-16.552 0.438-19.773 8.136l-11.636 27.955h-41.91l-11.636-27.955c-3.221-7.699-12.069-11.343-19.773-8.136-7.708 3.212-11.338 12.065-8.136 19.773l46.545 111.728 2.318 3.817c2.825 3.412 7.056 5.502 11.636 5.502zM771.319 200.127h16.635l-8.318 20.047-8.318-20.047z" />
<glyph unicode="&#xe93b;" glyph-name="notification-block-1" data-tags="notification-block-1" horiz-adv-x="931" d="M256 157.091c0 19.279 15.629 34.909 34.909 34.909s34.909-15.63 34.909-34.909c0-70.693 57.307-128 128-128s128 57.307 128 128c0 19.279 15.63 34.909 34.909 34.909s34.909-15.63 34.909-34.909c0-109.251-88.567-197.818-197.818-197.818s-197.818 88.567-197.818 197.818zM0 239.411c0 31.088 12.343 60.919 34.318 82.907l28.091 28.090c19.639 19.638 30.681 46.275 30.682 74.045v128.275c0 199.224 161.503 360.727 360.727 360.727 19.279 0 34.909-15.629 34.909-34.909s-15.63-34.909-34.909-34.909c-160.665 0-290.909-130.244-290.909-290.909v-128.275c-0.001-46.285-18.403-90.675-51.136-123.406l-28.045-28.090c-8.897-8.899-13.909-20.973-13.909-33.545 0.009-26.182 21.231-47.402 47.409-47.411h673.18c26.182 0.009 47.402 21.229 47.411 47.411 0 12.572-5.013 24.641-13.908 33.545l-28.048 28.090c-32.731 32.731-51.135 77.117-51.135 123.406v58.456c0 19.28 15.63 34.909 34.909 34.909s34.909-15.629 34.909-34.909v-58.456c0-27.769 11.041-54.402 30.683-74.045l28.090-28.090c21.974-21.983 34.318-51.819 34.318-82.907-0.009-64.74-52.489-117.22-117.229-117.229h-673.18c-64.74 0.009-117.218 52.489-117.227 117.229zM837.818 762.182c0 70.693-57.307 128-128 128s-128-57.307-128-128c0-70.693 57.307-128 128-128s128 57.307 128 128zM907.636 762.182c0-109.252-88.567-197.818-197.818-197.818s-197.818 88.566-197.818 197.818c0 109.252 88.567 197.818 197.818 197.818s197.818-88.566 197.818-197.818z" />
<glyph unicode="&#xe93c;" glyph-name="ant-design_apple-filled" data-tags="ant-design_apple-filled" d="M747.401 424.299c-0.401 68.203 30.498 119.601 92.898 157.501-34.897 50-87.697 77.5-157.299 82.8-65.899 5.2-138.001-38.4-164.399-38.4-27.9 0-91.699 36.6-141.9 36.6-103.6-1.6-213.7-82.6-213.7-247.401 0-48.7 8.9-98.999 26.7-150.797 23.8-68.203 109.6-235.302 199.1-232.602 46.801 1.101 79.902 33.199 140.8 33.199 59.102 0 89.698-33.199 141.901-33.199 90.3 1.301 167.898 153.199 190.498 221.598-121.101 57.101-114.598 167.202-114.598 170.701zM642.3 729.3c50.701 60.2 46.101 115 44.599 134.7-44.8-2.6-96.597-30.5-126.101-64.8-32.499-36.8-51.597-82.3-47.497-133.6 48.397-3.7 92.599 21.2 128.998 63.7z" />
<glyph unicode="&#xe93d;" glyph-name="user-settings-1" data-tags="user-settings-1" d="M478.734 400.863c19.251-0.903 34.122-17.245 33.224-36.501-0.903-19.247-17.245-34.122-36.496-33.224-88.661 4.119-178.212-17.119-256.183-63.549-36.712-21.858-89.928-48.244-124.227-81.818-16.762-16.407-23.902-29.952-25.045-40.406-0.906-8.304 1.213-21.979 22.182-41.956 48.212-45.926 97.186-74.319 156.409-74.319h251.772c19.279 0 34.909-15.63 34.909-34.909s-15.63-34.909-34.909-34.909h-251.772c-84.633 0-150.066 41.649-204.591 93.594-31.598 30.106-47.355 63.981-43.409 100.087 3.712 33.96 24.148 61.696 45.636 82.73 42.2 41.295 108.23 74.561 137.364 91.909 90.12 53.653 193.287 78.010 295.137 73.272zM628.368 715.636c0 96.399-78.145 174.545-174.545 174.545s-174.545-78.147-174.545-174.545c0-96.399 78.147-174.545 174.545-174.545s174.545 78.147 174.545 174.545zM698.186 715.636c0-134.958-109.405-244.364-244.363-244.364s-244.364 109.406-244.364 244.364c0 134.958 109.406 244.364 244.364 244.364s244.363-109.406 244.363-244.364zM899.868 203.636c0 23.301-7.233 44.977-19.819 63.134-21.378 30.86-58.154 51.549-100.408 51.549-42.249 0-79.030-20.689-100.408-51.549-12.581-18.157-19.819-39.834-19.819-63.134 0-23.296 7.233-44.968 19.819-63.134 21.383-30.86 58.159-51.549 100.408-51.549s79.025 20.689 100.408 51.549c12.586 18.167 19.819 39.838 19.819 63.134zM969.686 203.636c0-25.251-5.325-49.278-14.774-71.182l29.775-19.135c16.207-10.422 20.908-32.014 10.501-48.23-10.426-16.216-32.056-20.922-48.272-10.496l-31.32 20.136c-26.852-26.689-61.896-45.391-101.046-52.457v-28.090c0-19.279-15.63-34.909-34.909-34.909s-34.909 15.63-34.909 34.909v28.090c-39.159 7.066-74.235 25.758-101.092 52.457l-31.269-20.136c-16.221-10.426-37.846-5.72-48.272 10.496-10.408 16.216-5.711 37.809 10.496 48.23l29.729 19.135c-9.439 21.9-14.727 45.936-14.727 71.182 0 25.26 5.278 49.32 14.727 71.229l-29.729 19.088c-16.212 10.426-20.913 32.014-10.496 48.23 10.422 16.212 32.009 20.918 48.226 10.496l31.316-20.089c26.852 26.689 61.938 45.391 101.092 52.457v28.044c0 19.279 15.63 34.909 34.909 34.909s34.909-15.63 34.909-34.909v-28.044c39.145-7.061 74.198-25.782 101.046-52.457l31.362 20.089c16.221 10.422 37.804 5.716 48.23-10.496 10.412-16.216 5.711-37.804-10.501-48.23l-29.775-19.088c9.458-21.914 14.774-45.964 14.774-71.229z" />
<glyph unicode="&#xe93e;" glyph-name="camera" data-tags="camera" horiz-adv-x="1126" d="M1024 560.6c0 90.486-73.313 163.8-163.8 163.8h-51.2c-13.695 0-26.503 6.905-34.1 18.3l-71.999 108c-11.396 17.078-30.567 27.299-51.101 27.3h-197.599c-20.533-0.001-39.704-10.221-51.101-27.3l-71.999-108c-7.597-11.395-20.405-18.3-34.1-18.3h-51.2c-90.486 0-163.8-73.314-163.8-163.8v-358.4c0-90.487 73.314-163.8 163.8-163.8h614.4c90.487 0 163.8 73.313 163.8 163.8v358.4zM665.6 381.4c0 62.209-50.391 112.6-112.6 112.6s-112.6-50.391-112.6-112.6c0-62.209 50.391-112.6 112.6-112.6s112.6 50.391 112.6 112.6zM747.6 381.4c0-107.452-87.148-194.6-194.6-194.6s-194.6 87.148-194.6 194.6c0 107.452 87.148 194.6 194.6 194.6s194.6-87.148 194.6-194.6zM1106.002 202.2c0-135.729-110.073-245.8-245.802-245.8h-614.4c-135.729 0-245.8 110.071-245.8 245.8v358.4c0 135.729 110.071 245.8 245.8 245.8h29.3l59.801 89.7c26.587 39.882 71.368 63.899 119.3 63.9h197.599c47.932-0.001 92.713-24.018 119.3-63.9l59.801-89.7h29.3c135.729 0 245.802-110.071 245.802-245.8v-358.4zM604.2 765.4c0-28.277-22.923-51.2-51.2-51.2s-51.2 22.923-51.2 51.2c0 28.277 22.923 51.2 51.2 51.2s51.2-22.923 51.2-51.2z" />
</font>
</defs>
</svg>
