<svg xmlns="http://www.w3.org/2000/svg" width="158" height="42" fill="none"><path fill="#9333EA" d="M9 20c0-5.523 4.477-10 10-10s10 4.477 10 10h9C38 9.507 29.493 1 19 1S0 9.507 0 20s8.507 19 19 19v-9c-5.523 0-10-4.477-10-10"/><path fill="#A855F7" d="M29 20c0 5.523 4.477 10 10 10v9c-10.493 0-19-8.507-19-19z"/><path fill="#000" d="M49.399 33V9.2h9.044q2.89 0 4.794.986 1.905.986 2.822 2.686.952 1.665.952 3.808a7.6 7.6 0 0 1-.918 3.672q-.885 1.665-2.788 2.72-1.904 1.054-4.862 1.054h-4.284V33zm4.76-12.716h3.978q2.142 0 3.06-.986.952-.986.952-2.618 0-1.7-.952-2.652-.918-.952-3.06-.952h-3.978zm18.807 13.124q-2.108 0-3.536-.68-1.393-.715-2.074-1.87a5.4 5.4 0 0 1-.646-2.618q0-1.53.782-2.72t2.414-1.87 4.08-.68h4.216q0-1.224-.34-2.006-.306-.816-1.02-1.224-.68-.408-1.836-.408-1.257 0-2.142.544-.85.544-1.054 1.632h-4.624q.204-1.836 1.224-3.162 1.02-1.36 2.72-2.108 1.734-.782 3.91-.782 2.415 0 4.182.816 1.803.816 2.754 2.346.987 1.53.986 3.774V33H78.95l-.544-2.584a4.7 4.7 0 0 1-.884 1.224q-.51.544-1.19.952-.68.374-1.53.578a6.6 6.6 0 0 1-1.836.238m1.156-3.672a4.1 4.1 0 0 0 1.53-.272 3.3 3.3 0 0 0 1.156-.85q.477-.544.782-1.224.306-.714.408-1.53v-.034h-3.434q-.985 0-1.632.272-.612.238-.918.714a1.75 1.75 0 0 0-.306 1.02q0 .613.306 1.054t.85.646q.544.204 1.258.204M86.853 40.48l4.114-9.384h-1.02L83.08 15.864h5.168L93.11 26.71l4.25-10.846h5.066L91.885 40.48zm33.135-3.706-8.704-13.702h5.474l8.942 13.702zm-5.542-3.366q-3.468 0-6.12-1.564t-4.182-4.318q-1.496-2.788-1.496-6.426t1.496-6.392q1.53-2.789 4.182-4.352t6.12-1.564q3.502 0 6.154 1.564 2.686 1.564 4.148 4.352 1.496 2.754 1.496 6.392 0 3.637-1.496 6.426a10.7 10.7 0 0 1-4.148 4.318q-2.652 1.564-6.154 1.564m0-4.284q2.142 0 3.706-.986 1.564-.985 2.414-2.754.85-1.802.85-4.284t-.85-4.25q-.85-1.801-2.414-2.788t-3.706-.986q-2.108 0-3.672.986-1.53.986-2.414 2.788-.85 1.768-.85 4.25t.85 4.284q.884 1.768 2.414 2.754 1.565.986 3.672.986M128.057 33V15.864h4.216l.442 3.162a7.2 7.2 0 0 1 1.564-1.904 6.9 6.9 0 0 1 2.142-1.224 7.8 7.8 0 0 1 2.652-.442v5.032h-1.598q-1.02 0-1.904.238a3.95 3.95 0 0 0-1.496.782q-.612.51-.952 1.428-.306.884-.306 2.244V33zm17.825.408q-2.108 0-3.536-.68-1.393-.715-2.074-1.87a5.4 5.4 0 0 1-.646-2.618q0-1.53.782-2.72t2.414-1.87 4.08-.68h4.216q0-1.224-.34-2.006-.306-.816-1.02-1.224-.68-.408-1.836-.408-1.257 0-2.142.544-.85.544-1.054 1.632h-4.624q.204-1.836 1.224-3.162 1.02-1.36 2.72-2.108 1.735-.782 3.91-.782 2.415 0 4.182.816 1.803.816 2.754 2.346.986 1.53.986 3.774V33h-4.012l-.544-2.584a4.7 4.7 0 0 1-.884 1.224q-.51.544-1.19.952-.68.374-1.53.578a6.6 6.6 0 0 1-1.836.238m1.156-3.672q.85 0 1.53-.272a3.3 3.3 0 0 0 1.156-.85q.476-.544.782-1.224.306-.714.408-1.53v-.034h-3.434q-.986 0-1.632.272-.612.238-.918.714a1.75 1.75 0 0 0-.306 1.02q0 .613.306 1.054.307.442.85.646.544.204 1.258.204"/></svg>